<svg id="Capa_1" data-name="Capa 1" xmlns="http://www.w3.org/2000/svg" viewBox="0 0 986.38 986.38"><defs><style>.cls-1{fill:#fff;stroke:#e6e6e6;stroke-miterlimit:10;stroke-width:13.26px;}</style></defs><path class="cls-1" d="M562.32,13.63C294,13.63,75.76,231.9,75.76,500.19A488.12,488.12,0,0,0,232,857.47a19.8,19.8,0,1,0,26.9-29.06A448.37,448.37,0,0,1,115.37,500.19c0-246.45,200.49-446.95,447-446.95s446.95,200.5,446.95,447-200.51,447-446.95,447a19.81,19.81,0,1,0,0,39.61c268.29,0,486.56-218.26,486.56-486.56S830.61,13.63,562.32,13.63Zm0,0" transform="translate(-69.13 -7)"/><path class="cls-1" d="M353.61,311.29H771a19.81,19.81,0,1,0,0-39.62H353.61a19.81,19.81,0,0,0,0,39.62Zm0,0" transform="translate(-69.13 -7)"/><path class="cls-1" d="M353.61,520H771a19.81,19.81,0,1,0,0-39.61H353.61a19.81,19.81,0,1,0,0,39.61Zm0,0" transform="translate(-69.13 -7)"/><path class="cls-1" d="M790.84,708.91A19.81,19.81,0,0,0,771,689.1H353.61a19.81,19.81,0,1,0,0,39.61H771a19.82,19.82,0,0,0,19.81-19.8Zm0,0" transform="translate(-69.13 -7)"/></svg>