<svg id="Capa_1" data-name="Capa 1" xmlns="http://www.w3.org/2000/svg" viewBox="0 0 584.21 450.9"><defs><style>.cls-1{fill:#999;stroke:#e1251b;stroke-miterlimit:10;stroke-width:7.1px;}</style></defs><path class="cls-1" d="M327.36,340.21a22,22,0,0,0-16.79-7c-6.84,0-12.27,2.35-16.32,7l-56.4,55.94a22.08,22.08,0,0,0-6.51,16.31,23.82,23.82,0,0,0,6.51,16.79L427.6,619.42a22.48,22.48,0,0,0,14,6.54,6.44,6.44,0,0,0,2.79.48c6.23,0,12-2.35,17.24-7L801.91,279.14a24.82,24.82,0,0,0,0-33.58L746,189.63a23.66,23.66,0,0,0-33.58,0l-267.56,268Zm0,0" transform="translate(-227.79 -179.09)"/></svg>