<svg id="Capa_1" data-name="Capa 1" xmlns="http://www.w3.org/2000/svg" xmlns:xlink="http://www.w3.org/1999/xlink" viewBox="0 0 851.71 851.71"><defs><style>.cls-1{fill:#fff;stroke:#000;stroke-miterlimit:10;stroke-width:0.06px;}.cls-2{fill:url(#Degradado_sin_nombre_95);}.cls-3{fill:url(#Degradado_sin_nombre_70);}.cls-4{fill:url(#Degradado_sin_nombre_63);}.cls-5{fill:url(#Degradado_sin_nombre_63-2);}.cls-6{fill:url(#Degradado_sin_nombre_63-3);}.cls-7{fill:url(#Degradado_sin_nombre_15);}.cls-8{fill:url(#Degradado_sin_nombre_37);}.cls-9{fill:url(#Degradado_sin_nombre_46);}.cls-10{fill:url(#Degradado_sin_nombre_3);}.cls-11{fill:url(#Degradado_sin_nombre_104);}.cls-12{fill:url(#Degradado_sin_nombre_2);}.cls-13{fill:url(#Degradado_sin_nombre_2-2);}.cls-14{fill:url(#Degradado_sin_nombre_2-3);}.cls-15{fill:url(#Degradado_sin_nombre_2-4);}.cls-16{fill:url(#Degradado_sin_nombre_2-5);}.cls-17{fill:url(#Degradado_sin_nombre_2-6);}.cls-18{fill:url(#Degradado_sin_nombre_2-7);}.cls-19{fill:url(#Degradado_sin_nombre_2-8);}.cls-20{fill:url(#Degradado_sin_nombre_2-9);}.cls-21{fill:url(#Degradado_sin_nombre_2-10);}.cls-22{fill:url(#Degradado_sin_nombre_2-11);}.cls-23{fill:url(#Degradado_sin_nombre_2-12);}.cls-24{fill:url(#Degradado_sin_nombre_2-13);}.cls-25{fill:url(#Degradado_sin_nombre_95-2);}.cls-26{fill:url(#Degradado_sin_nombre_2-14);}.cls-27{fill:url(#Degradado_sin_nombre_2-15);}.cls-28{fill:url(#Degradado_sin_nombre_2-16);}</style><linearGradient id="Degradado_sin_nombre_95" x1="478.78" y1="469.83" x2="478.78" y2="746.92" gradientTransform="translate(570.42 -160.36) rotate(45)" gradientUnits="userSpaceOnUse"><stop offset="0" stop-color="#161616"/><stop offset="1" stop-color="#d1d1d1"/></linearGradient><linearGradient id="Degradado_sin_nombre_70" x1="318.18" y1="673.04" x2="318.18" y2="751.17" gradientUnits="userSpaceOnUse"><stop offset="0"/><stop offset="1" stop-color="#fff"/></linearGradient><linearGradient id="Degradado_sin_nombre_63" x1="333.13" y1="137.39" x2="333.13" y2="447.64" gradientUnits="userSpaceOnUse"><stop offset="0" stop-color="#101010"/><stop offset="1" stop-color="#4e4e4e"/></linearGradient><linearGradient id="Degradado_sin_nombre_63-2" x1="292.52" y1="156.81" x2="292.52" y2="509.45" xlink:href="#Degradado_sin_nombre_63"/><linearGradient id="Degradado_sin_nombre_63-3" x1="461.02" y1="161.94" x2="461.02" y2="410.38" xlink:href="#Degradado_sin_nombre_63"/><linearGradient id="Degradado_sin_nombre_15" x1="307.07" y1="52.05" x2="307.07" y2="134.47" gradientUnits="userSpaceOnUse"><stop offset="0"/><stop offset="1" stop-color="#c2c2c2"/></linearGradient><linearGradient id="Degradado_sin_nombre_37" x1="101.03" y1="147.85" x2="101.03" y2="848.76" gradientUnits="userSpaceOnUse"><stop offset="0" stop-color="#111"/><stop offset="1" stop-color="#707070"/></linearGradient><linearGradient id="Degradado_sin_nombre_46" x1="357.17" y1="280.44" x2="357.17" y2="824.21" gradientUnits="userSpaceOnUse"><stop offset="0" stop-color="#282828"/><stop offset="1" stop-color="#838383"/></linearGradient><linearGradient id="Degradado_sin_nombre_3" x1="548.89" y1="568.9" x2="548.89" y2="681.16" xlink:href="#Degradado_sin_nombre_70"/><linearGradient id="Degradado_sin_nombre_104" x1="804.29" y1="227.45" x2="804.29" y2="331.4" xlink:href="#Degradado_sin_nombre_70"/><linearGradient id="Degradado_sin_nombre_2" x1="192.34" y1="54.97" x2="192.34" y2="82.45" gradientUnits="userSpaceOnUse"><stop offset="0" stop-color="#fff"/><stop offset="1" stop-color="#575757"/></linearGradient><linearGradient id="Degradado_sin_nombre_2-2" x1="387.54" y1="53.26" x2="387.54" y2="80.73" xlink:href="#Degradado_sin_nombre_2"/><linearGradient id="Degradado_sin_nombre_2-3" x1="488.46" y1="53.26" x2="488.46" y2="80.73" xlink:href="#Degradado_sin_nombre_2"/><linearGradient id="Degradado_sin_nombre_2-4" x1="437.45" y1="53.26" x2="437.45" y2="80.73" xlink:href="#Degradado_sin_nombre_2"/><linearGradient id="Degradado_sin_nombre_2-5" x1="68.71" y1="164.86" x2="68.71" y2="192.34" xlink:href="#Degradado_sin_nombre_2"/><linearGradient id="Degradado_sin_nombre_2-6" x1="68.71" y1="215.07" x2="68.71" y2="242.55" xlink:href="#Degradado_sin_nombre_2"/><linearGradient id="Degradado_sin_nombre_2-7" x1="68.71" y1="266.71" x2="68.71" y2="294.18" xlink:href="#Degradado_sin_nombre_2"/><linearGradient id="Degradado_sin_nombre_2-8" x1="535.74" y1="156.81" x2="535.74" y2="184.29" xlink:href="#Degradado_sin_nombre_2"/><linearGradient id="Degradado_sin_nombre_2-9" x1="535.74" y1="207.02" x2="535.74" y2="234.5" xlink:href="#Degradado_sin_nombre_2"/><linearGradient id="Degradado_sin_nombre_2-10" x1="535.74" y1="258.66" x2="535.74" y2="286.13" xlink:href="#Degradado_sin_nombre_2"/><linearGradient id="Degradado_sin_nombre_2-11" x1="1113.53" y1="673.06" x2="1113.53" y2="700.53" gradientTransform="translate(1263.6 -295.66) rotate(90)" xlink:href="#Degradado_sin_nombre_2"/><linearGradient id="Degradado_sin_nombre_2-12" x1="1113.53" y1="723.27" x2="1113.53" y2="750.74" gradientTransform="translate(1263.6 -294.95) rotate(90)" xlink:href="#Degradado_sin_nombre_2"/><linearGradient id="Degradado_sin_nombre_2-13" x1="1113.53" y1="774.9" x2="1113.53" y2="802.37" gradientTransform="translate(1263.61 -294.22) rotate(90)" xlink:href="#Degradado_sin_nombre_2"/><linearGradient id="Degradado_sin_nombre_95-2" x1="679.09" y1="270.12" x2="679.09" y2="547.21" gradientTransform="translate(487.87 -360.5) rotate(45)" xlink:href="#Degradado_sin_nombre_95"/><linearGradient id="Degradado_sin_nombre_2-14" x1="777.79" y1="439.93" x2="777.79" y2="467.41" gradientTransform="translate(189.61 1218.53) rotate(-90)" xlink:href="#Degradado_sin_nombre_2"/><linearGradient id="Degradado_sin_nombre_2-15" x1="777.79" y1="490.14" x2="777.79" y2="517.62" gradientTransform="translate(174.71 1182.83) rotate(-90)" xlink:href="#Degradado_sin_nombre_2"/><linearGradient id="Degradado_sin_nombre_2-16" x1="777.79" y1="541.77" x2="777.79" y2="569.25" gradientTransform="translate(159.39 1146.12) rotate(-90)" xlink:href="#Degradado_sin_nombre_2"/></defs><path class="cls-1" d="M801.58,203.15H795.9l-63,63-13.74-13.74-82.41,82.42V203.15a68.78,68.78,0,0,0-55-67.29V24.58H101A68.76,68.76,0,0,0,32.35,93.26V807.55A68.76,68.76,0,0,0,101,876.23H636.75V566L793.53,409.2h6.39a15.4,15.4,0,0,1,10.89,26.29L668.24,578.06l19.43,19.42L830.24,454.91a42.81,42.81,0,0,0-13-69.45L834.74,368,821,354.25l63-63v-5.69a82.5,82.5,0,0,0-82.42-82.42Z" transform="translate(-32.32 -24.55)"/><rect class="cls-2" x="337.1" y="554.12" width="283.35" height="108.51" transform="translate(-322.27 492.18) rotate(-45)"/><polygon class="cls-3" points="296.47 673.04 357.24 733.81 279.11 751.17 296.47 673.04"/><polygon class="cls-4" points="241.59 137.39 509.45 405.25 467.06 447.64 156.81 137.39 241.59 137.39"/><polygon class="cls-5" points="137.39 156.81 447.64 467.06 405.25 509.45 137.39 241.59 137.39 156.81"/><path class="cls-6" d="M609.27,203.15V362.3L561.2,410.38,312.76,161.94h255.3A41.26,41.26,0,0,1,609.27,203.15Z" transform="translate(-32.32 -24.55)"/><path class="cls-7" d="M101,52.05h453.3v82.42H101a41.21,41.21,0,0,1,0-82.42Z" transform="translate(-32.32 -24.55)"/><path class="cls-8" d="M59.82,807.55V147.85A68,68,0,0,0,101,161.94h41.21V848.76H101A41.26,41.26,0,0,1,59.82,807.55Z" transform="translate(-32.32 -24.55)"/><polygon class="cls-9" points="137.39 824.21 137.39 280.44 385.83 528.88 275.95 638.75 242.93 787.35 391.53 754.33 501.4 644.45 576.95 720 576.95 824.21 137.39 824.21"/><polygon class="cls-10" points="576.95 681.16 520.83 625.03 576.95 568.9 576.95 681.16"/><path class="cls-11" d="M801.58,331.4l-49.26-49.26L807,227.45a55,55,0,0,1,49.24,49.25Z" transform="translate(-32.32 -24.55)"/><rect class="cls-12" x="54.97" y="54.97" width="274.73" height="27.47"/><rect class="cls-13" x="372.2" y="53.26" width="30.68" height="27.47"/><rect class="cls-14" x="473.12" y="53.26" width="30.68" height="27.47"/><rect class="cls-15" x="422.11" y="53.26" width="30.68" height="27.47"/><rect class="cls-16" x="53.37" y="164.86" width="30.68" height="27.47"/><rect class="cls-17" x="53.37" y="215.07" width="30.68" height="27.47"/><rect class="cls-18" x="53.37" y="266.71" width="30.68" height="27.47"/><rect class="cls-19" x="520.4" y="156.81" width="30.68" height="27.47"/><rect class="cls-20" x="520.4" y="207.02" width="30.68" height="27.47"/><rect class="cls-21" x="520.4" y="258.66" width="30.68" height="27.47"/><rect class="cls-22" x="563.06" y="802.53" width="27.47" height="30.68" transform="translate(-43.84 -16.31) rotate(-0.81)"/><rect class="cls-23" x="512.86" y="803.24" width="27.47" height="30.68" transform="translate(-43.85 -17.02) rotate(-0.81)"/><rect class="cls-24" x="461.23" y="803.97" width="27.47" height="30.68" transform="translate(-43.87 -17.75) rotate(-0.81)"/><rect class="cls-25" x="537.42" y="354.41" width="283.35" height="108.51" transform="translate(-122.39 575.33) rotate(-45)"/><rect class="cls-26" x="629.55" y="425.39" width="27.47" height="30.68" transform="translate(-154.77 563.56) rotate(-45.31)"/><rect class="cls-27" x="664.86" y="389.7" width="27.47" height="30.68" transform="translate(-118.91 578.07) rotate(-45.31)"/><rect class="cls-28" x="701.17" y="352.99" width="27.47" height="30.68" transform="translate(-82.04 592.99) rotate(-45.31)"/></svg>