<svg id="Capa_1" data-name="Capa 1" xmlns="http://www.w3.org/2000/svg" viewBox="0 0 887.17 724.84"><defs><style>.cls-1{fill:#e6e6e6;stroke-width:0.23px;}.cls-1,.cls-2{stroke:#000;stroke-miterlimit:10;}.cls-2{font-size:316.9px;fill:#f1f1f1;stroke-width:0.23px;font-family:Calibri;}</style></defs><path class="cls-1" d="M664.91,494.67c23.39,7,45.22,18,62.35,33.61,6.23,5.47,16.37,4.7,21.85-1.54s4.69-16.37-1.54-21.84c-21-18.74-46.75-32-75.6-39.86l-9.37-2.36c-14.81-3.92-31.19,1.53-40.56,12.44-34.37,39-78,42-124.07,42-45.24-.06-88.92-3.22-123.18-42.26-10.13-11.72-25.71-16.42-39.76-12.53l-9.37,2.33A191.59,191.59,0,0,0,190.57,596.25l-13.32,45.21-131-.16A7.17,7.17,0,0,1,40.76,639a6.76,6.76,0,0,1-1.55-6.25l25.86-91.22C87,469,133,445.64,215.74,426.24c1.56,0,2.34-.77,3.9-1.55,5.45,3.91,11.69,7.82,17.15,10.95,2.34,1.55,4.68,1.56,7,1.56a16.43,16.43,0,0,0,14.06-8.56,16.06,16.06,0,0,0-6.22-21.07c-46-23.45-79.44-91.35-79.35-160.77a113.5,113.5,0,0,1,114-113.72c18.72,0,35.87,4.72,53,13.32a180.72,180.72,0,0,0-14.91,71c-.16,133.36,80,245.78,176,245.9C594,463.38,676.79,348.82,677,217.8A176.09,176.09,0,0,0,500.9,41.31c-60.84-.08-114.69,31.05-146.73,77.81l-.78-.78a145.16,145.16,0,0,0-212.3,128.42c-.07,58.5,20.14,114.68,52.07,152.16-71,17.85-130.31,44.3-157.72,133.18l-25.86,92a37.16,37.16,0,0,0,7,33.55A37,37,0,0,0,46.19,672.5l121.66.15-11,36.64a42,42,0,0,0,7,38.24c8.56,10.92,21.8,18,35.85,18l330.7.41a15.6,15.6,0,0,0,0-31.2l-330.7-.41a11.35,11.35,0,0,1-10.13-5.48c-1.57-1.55-3.12-5.46-1.55-10.91L221,604.08A159.32,159.32,0,0,1,334.21,494.26l9.36-2.34c3.12-.77,6.24.79,8.57,3.13C395,544.24,448,548.21,499.49,548.27S604,544.5,647,495.42a.76.76,0,0,1,.78-.77c1.56-1.56,5.46-3.12,7.8-2.34Zm-164-422.16c64.74.08,119.28,43,137.93,101.56a73.42,73.42,0,0,1-73.28-28.95c-5.45-7-14.81-8.6-21.83-3.14a13.12,13.12,0,0,0-5.48,7.79c-.78.78-.78,1.56-1.56,2.34-21.89,44.42-95.23,63-179.44,46.57,9.44-71,70.35-126.26,143.66-126.17Zm-85.21,162.9c62.39.08,113.89-19.36,140.45-56A104.27,104.27,0,0,0,625.49,206a82.74,82.74,0,0,0,19.5-2.32,75.77,75.77,0,0,1,.76,13.27c-.14,114.65-68.12,215.18-145.34,215.08-74.09-.09-140.27-93-144.81-202.18a325.38,325.38,0,0,0,60,5.53Zm0,0" transform="translate(-8.12 -41.19)"/><text class="cls-2" transform="translate(643.57 563.72) rotate(0.07) scale(1.53 1)">_</text></svg>