<svg id="Capa_1" data-name="Capa 1" xmlns="http://www.w3.org/2000/svg" xmlns:xlink="http://www.w3.org/1999/xlink" viewBox="0 0 856.17 716.83"><defs><style>.cls-1{filter:url(#AI_Sombra_1);}.cls-2,.cls-4{fill:#fff;}.cls-2{stroke:gray;}.cls-2,.cls-5{stroke-miterlimit:10;}.cls-3{filter:url(#AI_Sombra_2);}.cls-5{fill:none;stroke:#333;}.cls-6{font-size:58.28px;font-family:MyriadPro-Regular, Myriad Pro;}</style><filter id="AI_Sombra_1" name="AI_Sombra_1"><feGaussianBlur result="blur" stdDeviation="2" in="SourceAlpha"/><feOffset result="offsetBlurredAlpha" dx="4" dy="4" in="blur"/><feMerge><feMergeNode in="offsetBlurredAlpha"/><feMergeNode in="SourceGraphic"/></feMerge></filter><filter id="AI_Sombra_2" x="-15%" y="-15%" width="140%" height="130%" name="AI_Sombra_2"><feGaussianBlur result="blur" stdDeviation="6" in="SourceAlpha"/><feOffset result="offsetBlurredAlpha" dx="8" dy="8" in="blur"/><feMerge><feMergeNode in="offsetBlurredAlpha"/><feMergeNode in="SourceGraphic"/></feMerge></filter></defs><g class="cls-1"><path class="cls-2" d="M573.42,220.91c-10.42,0-17.36-6.95-17.36-17.37V134.09c0-10.42-6.95-17.36-17.37-17.36H365.06c-10.42,0-17.37,6.94-17.37,17.36v69.45c0,10.42-6.94,17.37-17.36,17.37S313,214,313,203.54V134.09C313,106.31,337.28,82,365.06,82H538.69c27.78,0,52.09,24.31,52.09,52.09v69.45C590.78,214,583.84,220.91,573.42,220.91Z" transform="translate(-23.79 -81.5)"/></g><g class="cls-3"><path class="cls-2" d="M451.88,512.32h-6.95L45.57,373.41c-7-3.47-13.89-13.89-10.42-24.31,3.47-6.94,13.89-13.89,24.31-10.41l392.42,138.9,392.41-138.9q15.63-5.22,20.84,10.41t-10.42,20.84L455.35,508.85c0,3.47,0,3.47-3.47,3.47Z" transform="translate(-23.79 -81.5)"/></g><g class="cls-1"><rect class="cls-4" x="328.65" y="343.36" width="197.17" height="122.38"/><rect class="cls-5" x="328.65" y="343.36" width="197.17" height="122.38"/></g><g class="cls-1"><path class="cls-2" d="M790.38,797.83h-677c-49.88,0-89.08-39.2-89.08-89.08V281.17c0-49.89,39.2-89.08,89.08-89.08h677c49.88,0,89.08,39.19,89.08,89.08V708.75C879.46,758.63,840.26,797.83,790.38,797.83Zm-677-570.11c-28.5,0-53.45,24.94-53.45,53.45V708.75c0,28.51,25,53.45,53.45,53.45h677c28.5,0,53.45-24.94,53.45-53.45V281.17c0-28.51-25-53.45-53.45-53.45Z" transform="translate(-23.79 -81.5)"/></g><text class="cls-6" transform="translate(378.54 422.36)">JOB</text></svg>