<?xml version="1.0" encoding="utf-8"?>
<!-- Generator: Adobe Illustrator 16.0.3, SVG Export Plug-In . SVG Version: 6.00 Build 0)  -->
<!DOCTYPE svg PUBLIC "-//W3C//DTD SVG 1.1//EN" "http://www.w3.org/Graphics/SVG/1.1/DTD/svg11.dtd">
<svg version="1.1" id="Capa_1" xmlns="http://www.w3.org/2000/svg" xmlns:xlink="http://www.w3.org/1999/xlink" x="0px" y="0px"
	 width="169px" height="95px" viewBox="0 0 169 95" enable-background="new 0 0 169 95" xml:space="preserve">
<path fill="#1F0B7E" d="M93.136,34.065V75.97c-3.622,2.7-6.644,6.162-8.831,10.153c-2.18-3.991-5.209-7.453-8.831-10.153V34.065
	c2.724,0.906,5.802,1.426,8.831,1.426C87.335,35.491,90.41,34.971,93.136,34.065"/>
<path fill="#1F0B7E" d="M45.289,72.058l0.37-38.081c5.03,6.236,12.731,10.229,21.366,10.229c1.281,0,2.538-0.094,3.772-0.264
	l-0.207,29.25c-3.686-1.516-7.525-2.808-11.746-3.117C53.631,69.689,49.533,69.924,45.289,72.058"/>
<path fill="#1F0B7E" d="M38.997,11.25v45.647c0,0-0.024-0.031-0.072-0.096c-0.128-0.201-0.269-0.393-0.402-0.592
	c-0.11-0.166-0.223-0.332-0.337-0.496c-0.112-0.158-0.222-0.318-0.338-0.475C32.86,48.363,24.768,43.89,15.625,43.89
	c-3.785,0-7.391,0.766-10.671,2.152C5.137,27,20.167,11.452,38.997,10.449V11.25z"/>
<path fill="#1F0B7E" d="M124.046,72.058l-0.37-38.081c-5.03,6.236-12.73,10.229-21.366,10.229c-1.28,0-2.538-0.094-3.771-0.264
	l0.207,29.25c3.686-1.516,7.524-2.808,11.746-3.117C115.704,69.689,119.803,69.924,124.046,72.058"/>
<path fill="#1F0B7E" d="M130.338,11.25v45.647c0,0,0.024-0.031,0.072-0.096c0.128-0.201,0.269-0.393,0.402-0.592
	c0.11-0.166,0.223-0.332,0.337-0.496c0.112-0.158,0.223-0.318,0.338-0.475c4.986-6.875,13.079-11.349,22.223-11.349
	c3.785,0,7.391,0.766,10.671,2.152c-0.183-19.042-15.213-34.59-34.043-35.593V11.25z"/>
</svg>
