<svg id="Capa_1" data-name="Capa 1" xmlns="http://www.w3.org/2000/svg" viewBox="0 0 995.37 978.97"><defs><style>.cls-1{fill:none;stroke:#fff;stroke-miterlimit:10;stroke-width:11.13px;}</style></defs><path class="cls-1" d="M991.93,946.63V159.24h32.81a16.41,16.41,0,0,0,16.4-16.41V28a16.4,16.4,0,0,0-16.4-16.4q-.72,0-1.44.06L465.57,60.88a16.4,16.4,0,0,0-15,16.34v65.61A16.41,16.41,0,0,0,467,159.24h32.81V421.7h32.81V159.24h426.5V946.63H851.62a61.35,61.35,0,0,0,9.08-32.34c0-23.46-12.29-35.83-21.25-44.87-8-8.07-11.56-12-11.56-21.22,0-40.76-22.54-82-65.62-82s-65.61,41.26-65.61,82c0,9.2-3.54,13.15-11.55,21.22-9,9-21.26,21.41-21.26,44.87a61.34,61.34,0,0,0,9.07,32.34H499.81V733.37a16.4,16.4,0,0,0-16.4-16.4H385a16.4,16.4,0,0,0-16.4,16.4V946.63H319.37V657l196.85-86.12L713.06,657v92.82h32.81V671.31l26.23,11.48a16.39,16.39,0,0,0,23-15v-82a16.39,16.39,0,0,0-9.83-15L522.79,455.88a16.44,16.44,0,0,0-13.15,0L247.18,570.71a16.4,16.4,0,0,0-9.83,15v82a16.41,16.41,0,0,0,23,15l26.23-11.49V946.63H171.73V667.76h32.81V635H106.12V274.06H467v-32.8H359l-60.81-60.82a16.44,16.44,0,0,0-11.6-4.8H155.33A16.41,16.41,0,0,0,138.92,192v49.22H89.71a16.4,16.4,0,0,0-16.4,16.4V651.35a16.41,16.41,0,0,0,16.4,16.41h49.21V946.63H73.31v32.8h984.24v-32.8ZM483.41,92.24l524.92-46.32v80.51H483.41ZM270.16,642.68V596.47L516.22,488.82l246,107.65v46.21l-16.4-7.18V635h-1.25L522.79,537.9a16.44,16.44,0,0,0-13.15,0L287.81,635h-1.25v.55ZM171.73,208.45h108l32.8,32.81H171.73ZM401.39,749.78H467V946.63H401.39ZM729.47,946.63c-9,0-32.81-10-32.81-32.34,0-9.54,3.59-13.56,11.73-21.75,8.89-9,21.08-21.23,21.08-44.34,0-38.92,21.46-49.21,32.8-49.21,26,0,32.81,32.19,32.81,49.21,0,23.11,12.18,35.38,21.08,44.34,8.13,8.2,11.73,12.21,11.73,21.75,0,22.39-23.77,32.34-32.81,32.34Z" transform="translate(-67.74 -6.03)"/><rect class="cls-1" x="530.49" y="749.9" width="32.81" height="32.81"/><path class="cls-1" d="M319.37,503.72v-164H467V306.87H155.33a16.41,16.41,0,0,0-16.41,16.41V585.74a16.41,16.41,0,0,0,16.41,16.4h49.21V569.33H171.73V339.68H286.56v164Z" transform="translate(-67.74 -6.03)"/><path class="cls-1" d="M598.24,339.68h98.42a16.4,16.4,0,0,0,16.4-16.4V224.85a16.4,16.4,0,0,0-16.4-16.4H598.24a16.41,16.41,0,0,0-16.41,16.4v98.43A16.41,16.41,0,0,0,598.24,339.68Zm16.4-98.42h65.61v65.61H614.64Z" transform="translate(-67.74 -6.03)"/><path class="cls-1" d="M778.68,503.72a16.4,16.4,0,0,0,16.4,16.4h98.43a16.4,16.4,0,0,0,16.4-16.4V405.3a16.41,16.41,0,0,0-16.4-16.41H795.08a16.41,16.41,0,0,0-16.4,16.41Zm32.81-82H877.1v65.62H811.49Z" transform="translate(-67.74 -6.03)"/><path class="cls-1" d="M827.89,667.76v32.81h65.62a16.41,16.41,0,0,0,16.4-16.41V585.74a16.41,16.41,0,0,0-16.4-16.41H827.89v32.81H877.1v65.62Z" transform="translate(-67.74 -6.03)"/><rect class="cls-1" x="136.8" y="710.94" width="32.81" height="32.81"/></svg>