<svg id="Capa_1" data-name="Capa 1" xmlns="http://www.w3.org/2000/svg" viewBox="0 0 882.08 882.08"><defs><style>.cls-1,.cls-3{fill:#e6e6e6;}.cls-1,.cls-2{stroke:#000;stroke-width:0.25px;}.cls-1,.cls-2,.cls-3{stroke-miterlimit:10;}.cls-2{fill:#f1f1f1;}.cls-3{stroke:#666;stroke-width:0.15px;}</style></defs><path class="cls-1" d="M450.09,8.16a17.95,17.95,0,1,0,0,35.9c223.32,0,405,181.69,405,405s-181.69,405-405,405-405-181.69-405-405c0-151.95,83.87-289.83,218.87-359.82a17.94,17.94,0,1,0-16.52-31.85C100.46,133.6,9.17,283.68,9.17,449.08,9.17,692.2,207,890,450.09,890S891,692.2,891,449.08,693.21,8.16,450.09,8.16Zm0,0" transform="translate(-9.05 -8.04)"/><path class="cls-2" d="M622.94,221.93a283,283,0,0,0-172.85-58.26c-157.39,0-285.42,128-285.42,285.41s128,285.41,285.42,285.41A283.61,283.61,0,0,0,651.91,650.9a17.95,17.95,0,0,0-25.38-25.38A247.88,247.88,0,0,1,450.09,698.6c-137.6,0-249.54-111.92-249.54-249.52S312.49,199.56,450.09,199.56c110.34,0,208.89,73.91,239.64,179.76a17.95,17.95,0,0,0,34.47-10A287.66,287.66,0,0,0,622.94,221.93Zm0,0" transform="translate(-9.05 -8.04)"/><path class="cls-2" d="M660.5,394.77a17.95,17.95,0,1,0-25.38,25.38l67.51,67.5a17.91,17.91,0,0,0,25.36,0l67.52-67.5a17.95,17.95,0,0,0-25.38-25.38L715.3,449.58Zm0,0" transform="translate(-9.05 -8.04)"/><path class="cls-3" d="M535.49,489.58l-.15,0-30-7.78c-2.55-.75-4.55-2.07-5-2.76l0-16.3.08-.09a69.84,69.84,0,0,0,15.94-44.83V405.63c10.26-33.41,3-62.38-.68-70.81l0-.09c-.07-.15-.14-.29-.22-.44l-.16-.29c-.07-.12-.15-.24-.23-.36s-.13-.21-.21-.32l-.2-.25a3.79,3.79,0,0,0-.31-.37l-.15-.17-.4-.4-.12-.1q-.24-.21-.48-.39l-.13-.1-.5-.34-.19-.1-.47-.26-.28-.12a3.25,3.25,0,0,0-.43-.18c-.1-.05-.22-.08-.32-.12s-.27-.09-.41-.12a3.58,3.58,0,0,0-.35-.09l-.41-.09-.33,0-.47-.05h-.8l-.25,0-.56.05h-.08c-7.75,1.11-17.21-1.16-27.23-3.55-17.71-4.25-37.69-9-55.2,3.6-16.92,1.46-28.92,15.68-28.92,34.9,0,14,6.49,38.95,8,44.49v6.72a72.65,72.65,0,0,0,15.63,45.35l0,17.42c-.43.69-2.44,2-5,2.76l-30,7.78-.14,0c-19.09,5.35-29.08,24.06-29.08,39.78v8.69c0,9.51,8.32,17.25,18.56,17.25H546c10.23,0,18.56-7.74,18.56-17.25v-8.69c0-15.72-10-34.43-29.07-39.78Zm-75.56,16.14L432,489a15.55,15.55,0,0,0,3.49-9.84v-3.46A48,48,0,0,0,460,482.57a49.49,49.49,0,0,0,24.29-6.41v2.95A15.66,15.66,0,0,0,488,489.19Zm-40-92.22c0-8,3.39-19.69,5.92-27.09,36.46.83,64,9.59,74.46,13.47v17.9C500.28,432,495,445,486.62,454l-.06.07c-7.15,7.7-16.5,12.45-26.58,12.45-21.35,0-40.08-23.47-40.08-50.22Zm7.74-67.4h.08a5.79,5.79,0,0,0,.72,0,1.81,1.81,0,0,0,.23,0l.55-.08.29-.08.47-.11.32-.12.42-.15.33-.15c.13-.06.26-.12.38-.19l.36-.21a3.37,3.37,0,0,0,.32-.19c.15-.1.29-.21.43-.32l.2-.14c11.83-9.68,27.2-6,43.47-2.1,8.76,2.09,17.75,4.24,26.48,4.27a99.07,99.07,0,0,1,1.95,37.86c-13.1-4.78-43.83-14.08-84.42-14.08h-.06l-.58,0-.23,0-.5.08-.31.05-.35.09-.42.11-.23.09c-.17.06-.34.11-.5.18l-.19.09c-.17.08-.34.16-.5.25s-.19.12-.28.17l-.37.23c-.16.1-.3.22-.45.33l-.16.13c-.17.14-.33.29-.49.44l-.08.08c-.14.14-.27.29-.41.44l-.11.13c-.11.13-.2.26-.29.39l-.19.26c-.06.1-.12.2-.19.3s-.15.26-.22.39-.08.17-.12.25l-.16.32a73.91,73.91,0,0,1-.9-10c0-8.73,4.11-18.94,15.71-18.94ZM373.79,539.23c-1.65,0-2.46-.94-2.46-1.16v-8.69c0-9.64,5.92-21.05,17.25-24.26L415.84,498l36,21.61v19.57Zm174.68-1.18a2.59,2.59,0,0,1-2.47,1.16H467.94V519.68l36.49-21.54,26.78,7c11.33,3.21,17.26,14.62,17.26,24.26Zm0,0" transform="translate(-9.05 -8.04)"/></svg>