<svg id="Capa_1" data-name="Capa 1" xmlns="http://www.w3.org/2000/svg" viewBox="0 0 993.53 988.72"><defs><style>.cls-1{fill:none;}.cls-1,.cls-5{stroke:#fff;stroke-width:8.52px;}.cls-1,.cls-5,.cls-6{stroke-miterlimit:10;}.cls-2{isolation:isolate;font-size:219.24px;font-family:SignPainter-HouseScript, SignPainter;}.cls-2,.cls-5,.cls-6{fill:#fff;}.cls-3{letter-spacing:-0.01em;}.cls-4{letter-spacing:-0.02em;}.cls-6{stroke:#666;stroke-width:1.77px;}</style></defs><path class="cls-1" d="M998.15,149.79l-27.76-3.3A75.49,75.49,0,0,0,823.52,129l-33-3.92a75.49,75.49,0,0,0-146.87-17.45l-48-5.7A75.49,75.49,0,0,0,448.79,84.51l-48-5.69A75.49,75.49,0,0,0,254,61.36l-27.76-3.3a64.33,64.33,0,0,0-71.35,56.2l-6.68,56.22,899.5,106.88,6.68-56.22A64.34,64.34,0,0,0,998.15,149.79ZM900.51,107.9a45.19,45.19,0,0,1,38.59,35l-84.5-10A45.37,45.37,0,0,1,900.51,107.9ZM720.61,86.53a45.17,45.17,0,0,1,38.59,35.05l-84.5-10A45.34,45.34,0,0,1,720.61,86.53ZM525.78,63.37a45.19,45.19,0,0,1,38.59,35.06l-84.5-10.05a45.37,45.37,0,0,1,45.91-25ZM330.94,40.22a45.21,45.21,0,0,1,38.6,35.05L285,65.23A45.38,45.38,0,0,1,330.94,40.22Z" transform="translate(-65.53 -5.39)"/><path class="cls-1" d="M70.24,826.3a64.32,64.32,0,0,0,56.19,71.35L898.56,989.4a64.32,64.32,0,0,0,71.35-56.19l74.36-625.79L144.6,200.52Z" transform="translate(-65.53 -5.39)"/><text class="cls-2" transform="translate(147.7 408.4) rotate(6.78)"><tspan class="cls-3">D</tspan><tspan class="cls-4" x="103.7" y="0">E</tspan><tspan x="180" y="0">L </tspan></text><line class="cls-5" x1="437" y1="441.08" x2="782.89" y2="483.96"/><line class="cls-6" x1="477.91" y1="749.59" x2="823.8" y2="792.47"/><text class="cls-2" transform="translate(261.7 716.26) rotate(6.78)">AL </text><rect class="cls-1" x="143.1" y="223.03" width="894.9" height="29.45" transform="translate(-33.35 -73.41) rotate(6.78)"/></svg>