<svg id="Capa_1" data-name="Capa 1" xmlns="http://www.w3.org/2000/svg" viewBox="0 0 117.91 99.84"><defs><style>.cls-1,.cls-2{fill:#fff;}.cls-1{stroke:#333;stroke-miterlimit:10;stroke-width:0.25px;}</style></defs><path class="cls-1" d="M117.18,87.48H104.37V74.76a1.71,1.71,0,1,0-3.41,0V87.48H88.15a1.71,1.71,0,1,0,0,3.42H101v12.89a1.71,1.71,0,1,0,3.41,0V90.9h12.81a1.71,1.71,0,0,0,0-3.42Zm0,0" transform="translate(-1.1 -6)"/><path class="cls-2" d="M43.53,105.84H26.06a10,10,0,0,1-10-10V60.91h-10a5,5,0,0,1-5-5,5.06,5.06,0,0,1,1.62-3.7L51.82,6.67a2.49,2.49,0,0,1,3.39,0L71,21.29v-7.8a2.5,2.5,0,0,1,2.5-2.5h15a2.5,2.5,0,0,1,2.5,2.5V39.81l8.24,7.7a2.5,2.5,0,1,1-3.41,3.65l-9-8.44A2.56,2.56,0,0,1,86,40.89V16H76V27a2.49,2.49,0,0,1-4.19,1.83L53.52,11.9,6.09,55.9l12.48,0a2.5,2.5,0,0,1,2.5,2.49V95.85a5,5,0,0,0,5,5H43.53a2.5,2.5,0,1,1,0,5Z" transform="translate(-1.1 -6)"/></svg>