<svg id="Capa_1" data-name="Capa 1" xmlns="http://www.w3.org/2000/svg" viewBox="0 0 871.23 871.23"><defs><style>.cls-1,.cls-2{fill:none;stroke:#fff;stroke-miterlimit:10;}.cls-1{stroke-width:0.25px;}.cls-3{fill:#f1f1f1;}</style></defs><rect class="cls-1" x="9.95" y="47.81" width="406.26" height="475.57"/><circle class="cls-2" cx="435.62" cy="435.62" r="435.12"/><path class="cls-3" d="M380,339.64c-1.74.1-7.52,5.05-7.52,5.05,3.11,1.32,9.33-5.2,7.52-5.05Zm.79-1-.44.29a1.89,1.89,0,0,1,.44-.19v-.1ZM593.93,117.2A57.81,57.81,0,1,1,536.14,175a57.76,57.76,0,0,1,57.79-57.79ZM247,365h15.45v-7.44H247c-4.24,0-7.3-.82-8.42-2.28a3.45,3.45,0,0,1-.48-2.57l.2-45h-7.44v43.36a10.67,10.67,0,0,0,1.7,8.5c2.63,3.56,7.48,5.4,14.44,5.4Zm489.53,105.6-2.14-17c-8.26-66.57-8.61-69.11-5.4-186.42a7.46,7.46,0,0,0-14.92-.4c-3.21,118.4-2.87,121,5.54,188.63l2.14,17c2.14,16.38.25,27.7-5.3,32-6.51,5-17.83.58-18.61.23-54.77-16.81-123,18-125.82,19.4a7.42,7.42,0,0,0,3.4,14,7.23,7.23,0,0,0,3.41-.82c.43-.2,30.9-15.7,65.46-20.85V632.34H613.37a11.4,11.4,0,1,0,0,22.8h87.82a11.4,11.4,0,1,0,0-22.8H672.71V515.22a88.18,88.18,0,0,1,20.12,3.5c.77.35,19.24,7.92,32.66-2.38,10.25-7.87,14-23.27,11-45.73Zm-35.43-33.78c-1.27-48.93-17.31-95.92-18.56-144.67-1.86-71-110.67-72.6-111.54-3.35-41.65,7.09-83.26,10.88-125.58,8.89-38.44-1.8-38.54,57.69-.39,59.48,44.47,2.09,88.55-2.14,132.38-9.33,4.48,26,9.83,52,11.52,78.34C498.28,457.83,448.08,534.52,435.26,632c-.1.68-.1,1.35-.15,2.09V418.32h57.1v-51H287.27a14.21,14.21,0,0,0,.25-2.34c0-.59.05-1.17.1-1.89.23-4.28,1-5.79,5.2-6.57a18.49,18.49,0,0,1,3.78-.24v3.55h55a23.69,23.69,0,0,0,4.71.53c2.29,0,4.28-.53,5.45-2.09a5.06,5.06,0,0,0,.62-3.06,5,5,0,0,1,.49-2.82,5.5,5.5,0,0,1,3.46-1.69,14.73,14.73,0,0,0-1.91,7H426.7c0-12-13.95-21.72-31.15-21.72a42,42,0,0,0-14.72,2.67c1,10.3-8.61,9.28-12.34,8.55a17,17,0,0,0-1.22,1.7c-.15-.05-.3-.15-.49-.2a7.67,7.67,0,0,0-5.3,2.49c-1,1.16-.92,2.66-.92,4a4.15,4.15,0,0,1-.25,1.94c-.67.89-1.94,1.17-3.44,1.27v-8.61H296.6v4.58a23,23,0,0,0-4.13.34c-5.35,1-6.41,3.44-6.71,8.26,0,.68-.05,1.35-.1,1.89a11.21,11.21,0,0,1-.18,2.44H172.29v51h31.1V665.69H435.06V641c3.79,38.1,68.86,34.6,74.6-9,9.91-75.37,53.84-125.72,127.82-142.39,30.7,4.71,64.68-12.79,63.61-52.69ZM256.32,199.34l9.38,133.54L241,334.64l-9.38-133.56Zm0,0" transform="translate(-15.27 -14.35)"/></svg>