<svg id="Capa_1" data-name="Capa 1" xmlns="http://www.w3.org/2000/svg" viewBox="0 0 112.66 112.66"><defs><style>.cls-1{fill:#fff;stroke:#e6e6e6;stroke-miterlimit:10;stroke-width:0.5px;}</style></defs><path class="cls-1" d="M99.73,21.43a56.07,56.07,0,1,0-79.3,79.3,56.07,56.07,0,1,0,79.3-79.3ZM95.22,96.22A49.7,49.7,0,0,1,24.94,25.94,49.7,49.7,0,0,1,95.22,96.22Zm0,0" transform="translate(-3.75 -4.75)"/><path class="cls-1" d="M84.79,36.37a3.18,3.18,0,0,0-4.51,0l-20.2,20.2-20.2-20.2a3.19,3.19,0,0,0-4.51,4.51l20.2,20.2-20.2,20.2a3.21,3.21,0,0,0,2.24,5.46,3.1,3.1,0,0,0,2.24-.95l20.21-20.2,20.2,20.2a3.18,3.18,0,0,0,2.24.95,3,3,0,0,0,2.24-.95,3.16,3.16,0,0,0,0-4.51L64.59,61.08l20.2-20.2a3.18,3.18,0,0,0,0-4.51Zm0,0" transform="translate(-3.75 -4.75)"/></svg>