<svg id="Capa_1" data-name="Capa 1" xmlns="http://www.w3.org/2000/svg" viewBox="0 0 641.34 874.19"><defs><style>.cls-1{fill:#fff;stroke:#1a1a1a;stroke-miterlimit:10;}</style></defs><path class="cls-1" d="M781.87,575.14a337.44,337.44,0,0,0-38.28-102.68c-3.71-7.4-7.48-14.88-11.19-22.57-8.33-17.21-17.19-34.13-26.36-50.3-.85-1.45-2.41-3.74-4.23-6.24-1.31-1.81-3.77-5.23-4.82-7.15V82.58A72.86,72.86,0,0,0,624.23,9.81H216.77a14.9,14.9,0,0,0-1.88.38,41.17,41.17,0,0,0-5.21,0,74.34,74.34,0,0,0-65.24,70.26,13,13,0,0,0-.44,2.13V752a43.66,43.66,0,0,0,43.66,43.66H480.72a352.37,352.37,0,0,0,15.13,77.26A14.56,14.56,0,0,0,509.69,883h205.2a14.54,14.54,0,0,0,14.22-11.4c14-62.89,29.72-131.44,43.18-188.07,3.07-12.87,6.23-26.19,8.53-39.74a230.44,230.44,0,0,0,3.52-35.55A200.52,200.52,0,0,0,781.87,575.14ZM479.06,766.57H187.66A14.54,14.54,0,0,1,173.11,752V85.08a45.42,45.42,0,0,1,39.29-46,43.34,43.34,0,0,1,33.71,11.15,43.79,43.79,0,0,1,14.32,32.31v553a43.66,43.66,0,0,0,43.66,43.66H484.26A532.36,532.36,0,0,0,479.06,766.57Zm-75.3-294a44.92,44.92,0,0,1-8.13-16.83,30.64,30.64,0,0,0-8.18-15.49V425.93l.8-1.59a29.56,29.56,0,0,0,3.15-13.21V390.84a17.23,17.23,0,0,1,17.21-17.2h23.81a17.22,17.22,0,0,1,17.2,17.2v20.29a29.48,29.48,0,0,0,3.1,13.1l.85,1.85-.1,14.37a29.34,29.34,0,0,0-8.06,15.13,45.18,45.18,0,0,1-8.21,17,18.41,18.41,0,0,0-3.46,10.77V495.7a18.4,18.4,0,0,0,9,15.89l44.09,26.47a13.13,13.13,0,0,1,6.44,10.22H347.75a13.06,13.06,0,0,1,6.37-10.19L398,511.78a18.52,18.52,0,0,0,9.25-16V483.43A18.5,18.5,0,0,0,403.76,472.57Zm89.52,2.94V508l-30.4-18.25v-3a73.61,73.61,0,0,0,11.22-25.69,29.24,29.24,0,0,0,8.61-20.84v-14.1a29.63,29.63,0,0,0-3.08-13.1l-.9-1.89V390.84a46.37,46.37,0,0,0-46.31-46.3H408.61a46.36,46.36,0,0,0-46.31,46.3v20.49l-.8,1.61a29.82,29.82,0,0,0-3.1,13.18v14.1a30.36,30.36,0,0,0,8.73,21.24,71.61,71.61,0,0,0,11.08,25.29v3l-39,23.41a42.53,42.53,0,0,0-20.59,36.28v13.39a14.56,14.56,0,0,0,14.55,14.56H493.28v56.75c-1.15,3.93-2.51,9.37-3.9,16H304.09a14.55,14.55,0,0,1-14.56-14.55v-553a72.75,72.75,0,0,0-14.74-43.66H624.26a43.65,43.65,0,0,1,43.65,43.66V621a28.88,28.88,0,0,1-13.57,24.56l-.56.36A27.82,27.82,0,0,1,640.54,650a9.1,9.1,0,0,0-1.73.13,28.9,28.9,0,0,1-16.45-5.06,27.64,27.64,0,0,1-7.05-7,28,28,0,0,1-5.3-13.31,19,19,0,0,1-.31-3.76V577.39h14.56a14.56,14.56,0,0,0,0-29.11H609.7V475.52a58.21,58.21,0,1,0-116.42,0ZM752.18,639C750,651.59,747,664.44,744,676.83c-12.71,53.36-27.39,117.22-40.75,177.06H520.48a347,347,0,0,1-11.84-72.5v-.26c0-.09-.08-.28-.1-.44A464.76,464.76,0,0,1,520.75,642a14.45,14.45,0,0,0,1.63-6.54V475.52a29.11,29.11,0,0,1,58.21,0V621a47,47,0,0,0,.73,8.62A58.66,58.66,0,0,0,606,669.07a57.85,57.85,0,0,0,32.85,10.19,33.63,33.63,0,0,0,3.62-.19,57.27,57.27,0,0,0,26.66-8.34l.67-.41A58.22,58.22,0,0,0,697,621V444.12c3.13,6.08,6.19,12.24,9.19,18.41,3.78,7.85,7.61,15.47,11.4,23a316.07,316.07,0,0,1,35.47,94.09A172.07,172.07,0,0,1,755.24,608,199.51,199.51,0,0,1,752.18,639Z" transform="translate(-143.5 -9.31)"/><path class="cls-1" d="M522.38,300.88V291.2a42.08,42.08,0,0,0-22.12-36.49l-3.93-2a23.07,23.07,0,0,0,19.6-12.7,21.54,21.54,0,0,0-2.08-22.73A162.07,162.07,0,0,1,490.66,162a63.16,63.16,0,0,1-1.55-13.91,63.63,63.63,0,0,0-20.37-46.57,70.93,70.93,0,0,0-96.4,0A63.64,63.64,0,0,0,352,148.05a62.79,62.79,0,0,1-1.53,13.87,162,162,0,0,1-23.19,55.3,21.59,21.59,0,0,0-2.1,22.76,23.1,23.1,0,0,0,19.62,12.71L340.22,255a41.81,41.81,0,0,0-21.58,36.18v9.67a14.55,14.55,0,0,0,14.55,14.56H507.83A14.55,14.55,0,0,0,522.38,300.88ZM348.81,286.32a12.26,12.26,0,0,1,5.11-5.64c1.09-.56,27.11-13.76,42.67-22.56a18.19,18.19,0,0,0,8.73-20.65,18.68,18.68,0,0,0-18.14-13.84H357.77a206.56,206.56,0,0,0,21-55.15A91.2,91.2,0,0,0,381,148.11a34.74,34.74,0,0,1,11.27-25.41,42.86,42.86,0,0,1,56.45,0A34.74,34.74,0,0,1,460,148.07a90.91,90.91,0,0,0,2.3,20.46,205.85,205.85,0,0,0,20.94,55.1H453.78a18.69,18.69,0,0,0-18.14,13.84,18.19,18.19,0,0,0,8.74,20.65c15.55,8.8,41.57,22,42.07,22.23a13.41,13.41,0,0,1,5.67,6Z" transform="translate(-143.5 -9.31)"/><path class="cls-1" d="M566,315.43h58.21a14.56,14.56,0,1,0,0-29.11H566a14.56,14.56,0,0,0,0,29.11Z" transform="translate(-143.5 -9.31)"/></svg>