<svg id="Capa_1" data-name="Capa 1" xmlns="http://www.w3.org/2000/svg" viewBox="0 0 857.38 857.38"><defs><style>.cls-1{fill:#e6e6e6;stroke:#000;stroke-miterlimit:10;stroke-width:0.3px;}</style></defs><path class="cls-1" d="M570.64,21c-169.83,0-308,138.18-308,308A306.81,306.81,0,0,0,342.8,536.07l-42.21,42.21a65.4,65.4,0,0,0-80.9,9.21L40.74,766.43a65.4,65.4,0,1,0,92.48,92.49L312.16,680a65.39,65.39,0,0,0,7.75-83.15l41.76-41.75a306.88,306.88,0,0,0,209,81.95c169.84,0,308-138.17,308-308S740.48,21,570.64,21ZM293.22,661,114.28,840a38.61,38.61,0,0,1-54.61-54.6l179-179A38.61,38.61,0,1,1,293.22,661Zm277.42-50.8c-155.06,0-281.22-126.16-281.22-281.23S415.58,47.79,570.64,47.79,851.87,173.94,851.87,329,725.71,610.24,570.64,610.24Zm0,0" transform="translate(-21.43 -20.85)"/><path class="cls-1" d="M810.6,244.18A255.11,255.11,0,0,0,654.46,88.7,13.39,13.39,0,0,0,645.64,114c64.66,22.55,116.89,74.55,139.71,139.12A13.39,13.39,0,0,0,798,262a13.17,13.17,0,0,0,4.46-.77,13.38,13.38,0,0,0,8.16-17.09Zm0,0" transform="translate(-21.43 -20.85)"/></svg>