<svg id="Capa_1" data-name="Capa 1" xmlns="http://www.w3.org/2000/svg" viewBox="0 0 880 841.29"><defs><style>.cls-1{fill:#e6e6e6;stroke:#303030;stroke-miterlimit:10;stroke-width:0.25px;}</style></defs><path class="cls-1" d="M657.49,475.79c23.07,6.91,44.6,17.68,61.51,33.06a15.27,15.27,0,1,0,20-23.08c-20.76-18.45-46.14-31.52-74.59-39.2l-9.23-2.31c-14.61-3.85-30.75,1.53-40,12.3-33.84,38.45-76.9,41.52-122.27,41.52-44.6,0-87.66-3.07-121.49-41.52-10-11.53-25.38-16.15-39.22-12.3L323,446.57A188.89,188.89,0,0,0,190,576.51l-13.07,44.6H47.71a7,7,0,0,1-5.39-2.3,6.65,6.65,0,0,1-1.54-6.16l25.39-90c21.53-71.52,66.89-94.59,148.4-113.81,1.54,0,2.31-.76,3.85-1.53,5.37,3.84,11.53,7.69,16.91,10.76,2.31,1.53,4.62,1.53,6.92,1.53a16.19,16.19,0,0,0,13.84-8.45,15.84,15.84,0,0,0-6.15-20.77c-45.37-23.06-78.43-90-78.43-158.4A111.9,111.9,0,0,1,283.77,119.76c18.46,0,35.37,4.61,52.3,13.07a178,178,0,0,0-14.62,70C321.45,334.29,400.66,445,495.24,445,587.52,445,669,332,669,202.8A173.6,173.6,0,0,0,495.24,29c-60,0-113,30.76-144.57,76.89l-.77-.76A143.11,143.11,0,0,0,140.75,232c0,57.67,20,113,51.52,150-70,17.68-128.41,43.83-155.33,131.49L11.56,604.19a36.64,36.64,0,0,0,6.93,33.07,36.4,36.4,0,0,0,29.22,14.61h120L156.89,688a41.5,41.5,0,0,0,6.93,37.69c8.46,10.75,21.53,17.68,35.37,17.68h326a15.38,15.38,0,0,0,0-30.76h-326a11.18,11.18,0,0,1-10-5.39c-1.55-1.53-3.08-5.38-1.55-10.75L220,584.2A157.06,157.06,0,0,1,331.45,475.79l9.23-2.31c3.07-.77,6.15.77,8.45,3.07,42.3,48.44,94.58,52.29,145.34,52.29s103-3.85,145.33-52.29a.75.75,0,0,1,.77-.76c1.54-1.54,5.38-3.08,7.69-2.31Zm-162.25-416c63.82,0,117.65,42.28,136.1,100a72.37,72.37,0,0,1-72.28-28.45c-5.38-6.92-14.61-8.46-21.53-3.07a12.92,12.92,0,0,0-5.38,7.68c-.78.77-.78,1.54-1.54,2.31C509.08,182,436.8,200.49,353.75,184.35,363,114.37,423,59.78,495.24,59.78ZM411.42,220.49c61.51,0,112.27-19.23,138.41-55.36a102.82,102.82,0,0,0,68.44,26.14A81.92,81.92,0,0,0,637.49,189a74.54,74.54,0,0,1,.77,13.07c0,113-66.9,212.23-143,212.23-73.05,0-138.41-91.51-143-199.15a320.34,320.34,0,0,0,59.21,5.38Zm0,0" transform="translate(-10.12 -28.89)"/><path class="cls-1" d="M874.62,707.81H759.27V593.24a15.38,15.38,0,1,0-30.75,0V707.81H613.18a15.38,15.38,0,0,0,0,30.76H728.52V854.69a15.38,15.38,0,0,0,30.75,0V738.57H874.62a15.38,15.38,0,0,0,0-30.76Zm0,0" transform="translate(-10.12 -28.89)"/></svg>