<svg id="Capa_1" data-name="Capa 1" xmlns="http://www.w3.org/2000/svg" viewBox="0 0 112.3 118.17"><defs><style>.cls-1{fill:none;stroke:#fff;stroke-miterlimit:10;stroke-width:0.75px;}</style></defs><path class="cls-1" d="M4,13.2H4a.83.83,0,0,0,.14.22l0,0L34.26,42.13V118h80.85V5.18H34.26V18.36L15.89.79,15.8.88C15.19.67,11.76-.61,7,4.4S3.76,12.6,4,13.2ZM87.81,83.65h17.28V108H87.81Zm0-45.62h17.28V81.65H87.81Zm0-22.82h2.76V36H87.81Zm9.27,0h2.76V36H97.08Zm8,20.81h-3.26V15.21h3.26Zm-10,0H92.58V15.21h2.49Zm-9.26,0h-2.5V15.21h2.5ZM78.54,15.21H81.3V36H78.54Zm-34.25,0H76.53V36H66v2H85.81V108H72.52v-4.65h-4V108H44.29V70.62h3.16v-4H44.29V51.73l1.81,1.73a17.75,17.75,0,0,1,4.11-7.29c2.47-2.82,5.32-4.84,7.5-5.39L44.29,28Zm0,0" transform="translate(-3.19 -0.2)"/><path class="cls-1" d="M51.08,46.76c-2.83,3.29-3.91,6.11-4,7.54,0,.43,1,1,1.13,1h0l2.3.28,1.7.2,7.82.94s0,0,0,0a2.73,2.73,0,0,1,.73-1.86,2.79,2.79,0,0,1,1.72-1l-2.23-7.6-.49-1.64-.6-2a1.28,1.28,0,0,0-.62-1c-1.44,0-4.57,1.84-7.5,5.26Zm6.44-2.85.36,1.24.48,1.64,1.75,6a5.62,5.62,0,0,0-.84.78,5.44,5.44,0,0,0-.66,1l-6.1-.73-1.72-.2-1.46-.18a16.65,16.65,0,0,1,3.27-5.32,17.71,17.71,0,0,1,4.92-4.16Zm0,0" transform="translate(-3.19 -0.2)"/><path class="cls-1" d="M61.38,56.73s0,0,0,.05l1.8,1.51a1.91,1.91,0,0,0,.95.23.92.92,0,0,0,.69-.23c.39-.44-.06-1.43-.26-1.59l-1.8-1.52a.25.25,0,0,0-.17,0h0a1.48,1.48,0,0,0-.84.54c-.35.42-.5.86-.36,1Zm0,0" transform="translate(-3.19 -0.2)"/><path class="cls-1" d="M68.51,73h4V66.6H65.73v4h2.78Zm0,0" transform="translate(-3.19 -0.2)"/><rect class="cls-1" x="50.5" y="66.4" width="5.8" height="4.02"/><rect class="cls-1" x="65.32" y="79.05" width="4.02" height="5.79"/><rect class="cls-1" x="65.32" y="91.09" width="4.02" height="5.79"/></svg>