<svg id="Capa_1" data-name="Capa 1" xmlns="http://www.w3.org/2000/svg" viewBox="0 0 842.29 842.18"><defs><style>.cls-1,.cls-2{fill:#15ffb9;stroke-miterlimit:10;stroke-width:0.25px;}.cls-1{stroke:#4c4c4c;}.cls-2{stroke:#303030;}</style></defs><path class="cls-1" d="M824.08,264.84h-219A373.24,373.24,0,0,1,681,358.39H824.08a46.78,46.78,0,1,0,0-93.55Zm0,0" transform="translate(-28.74 -28.88)"/><path class="cls-1" d="M824.08,382.78H693.74a368.78,368.78,0,0,1,30.36,93.54h100a46.77,46.77,0,1,0,0-93.54Zm0,0" transform="translate(-28.74 -28.88)"/><path class="cls-1" d="M824.08,146.93H477.77a46.54,46.54,0,0,0-43.71,30.58,372.09,372.09,0,0,1,140.9,63H824.08a46.78,46.78,0,1,0,0-93.55Zm0,0" transform="translate(-28.74 -28.88)"/><path class="cls-1" d="M477.77,122.55H824.08a46.78,46.78,0,1,0,0-93.55H477.77a46.78,46.78,0,1,0,0,93.55Zm0,0" transform="translate(-28.74 -28.88)"/><path class="cls-1" d="M824.08,500.68H727.85a339,339,0,0,1-1.18,93.55h97.41a46.78,46.78,0,1,0,0-93.55Zm0,0" transform="translate(-28.74 -28.88)"/><path class="cls-1" d="M824.08,618.62H722.92a369.46,369.46,0,0,1-33,93.55h134.2a46.78,46.78,0,1,0,0-93.55Zm0,0" transform="translate(-28.74 -28.88)"/><path class="cls-1" d="M824.08,736.55H676.31a378.39,378.39,0,0,1-79.76,93.55H824.08a46.78,46.78,0,1,0,0-93.55Zm0,0" transform="translate(-28.74 -28.88)"/><path class="cls-2" d="M356.33,216.1C175.75,216.1,28.86,363,28.86,543.57S175.75,870.93,356.33,870.93,683.7,724.12,683.7,543.57,536.89,216.1,356.33,216.1Zm0,561.29c-128.93,0-233.92-104.88-233.92-233.82s105-233.93,233.92-233.93,233.82,105,233.82,233.93S485.27,777.39,356.33,777.39Zm0,0" transform="translate(-28.74 -28.88)"/><path class="cls-2" d="M369.91,511.93V431.08c47.16.88,46.72,46.42,74.42,46.42,14.42,0,26.82-9.74,26.82-26.41,0-41.71-68.1-62.43-101.24-63.42V365c0-7.14-5.56-14.42-12.84-14.42s-12.61,7.28-12.61,14.42v22.66c-53.13,1.73-101.24,31.56-101.24,89.39,0,47.16,38.15,74.83,101.24,86.27v88.95c-70.78-3-33.67-61.66-81.35-61.66-16,0-26.3,9.82-26.3,26.71,0,33.69,35.69,76.66,107.65,78.36V722c0,7.28,5.44,14.56,12.61,14.56s12.84-7.28,12.84-14.56v-26.3c63.39-3.83,106-32.82,106-89.8,0-65.41-49.71-82-105.95-94Zm-25.45-4.6c-32-6.43-47.79-18.72-47.79-40.09,0-18.29,18.72-35.28,47.79-36.16Zm25.45,145V568c23,5.14,52.39,13.57,52.39,42.56,0,28-26.85,40-52.39,41.68Zm0,0" transform="translate(-28.74 -28.88)"/></svg>