<svg id="Capa_1" data-name="Capa 1" xmlns="http://www.w3.org/2000/svg" viewBox="0 0 886.89 349.56"><defs><style>.cls-1,.cls-2{fill:#e6e6e6;stroke-width:0.23px;}.cls-1{stroke:#303030;}.cls-1,.cls-2,.cls-3{stroke-miterlimit:10;}.cls-2{stroke:#4c4c4c;}.cls-3{fill:none;stroke:#fff;stroke-width:2px;}</style></defs><path class="cls-1" d="M583.48,426.12a15.65,15.65,0,0,0-21.33,5.65A304.72,304.72,0,0,1,40,439.54a304.87,304.87,0,0,1,451.79-74.71,15.64,15.64,0,0,0,22-2.1,15.45,15.45,0,0,0-2.11-21.85A336,336,0,0,0,8.33,431.77a15.46,15.46,0,0,0,0,15.56,336,336,0,0,0,580.84,0,15.48,15.48,0,0,0-5.69-21.21Zm0,0" transform="translate(-6.11 -264.76)"/><path class="cls-2" d="M298.75,524.5a85.36,85.36,0,0,1-58.28-22.84,15.67,15.67,0,0,0-22.07.76,15.47,15.47,0,0,0,.76,21.94,116.65,116.65,0,0,0,79.58,31.18c64.33,0,116.66-52,116.66-116s-52.33-116-116.66-116-116.64,52-116.64,116a15.61,15.61,0,0,0,31.21,0c0-46.85,38.32-85,85.43-85s85.44,38.1,85.44,85-38.33,85-85.43,85Zm0,0" transform="translate(-6.11 -264.76)"/><line class="cls-3" x1="796.6" y1="78.36" x2="796.6" y2="257.92"/><line class="cls-3" x1="691.26" y1="168.14" x2="886.89" y2="168.14"/></svg>