<svg id="Capa_1" data-name="Capa 1" xmlns="http://www.w3.org/2000/svg" viewBox="0 0 854.06 854.06"><defs><style>.cls-1{fill:gray;stroke:#000;stroke-miterlimit:10;stroke-width:0.3px;}</style></defs><path class="cls-1" d="M570.17,22.66C401,22.66,263.36,160.3,263.36,329.48a305.65,305.65,0,0,0,79.85,206.25l-42,42A65.16,65.16,0,0,0,220.58,587L42.32,765.21a65.14,65.14,0,1,0,92.12,92.12L312.7,679.08a65.16,65.16,0,0,0,7.72-82.83L362,554.66a305.65,305.65,0,0,0,208.16,81.63C739.36,636.29,877,498.66,877,329.48S739.36,22.66,570.17,22.66ZM293.83,660.22,115.58,838.47a38.46,38.46,0,0,1-54.4-54.39L239.44,605.82a38.46,38.46,0,1,1,54.39,54.4Zm276.34-50.6C415.71,609.62,290,484,290,329.48S415.71,49.34,570.17,49.34,850.32,175,850.32,329.48,724.65,609.62,570.17,609.62Zm0,0" transform="translate(-23.09 -22.51)"/><path class="cls-1" d="M809.21,245A254.15,254.15,0,0,0,653.67,90.1a13.34,13.34,0,0,0-8.78,25.19c64.4,22.47,116.43,74.27,139.16,138.58A13.34,13.34,0,0,0,809.21,245Zm0,0" transform="translate(-23.09 -22.51)"/></svg>