<svg id="Capa_1" data-name="Capa 1" xmlns="http://www.w3.org/2000/svg" viewBox="0 0 1088.88 789.71"><defs><style>.cls-1{fill:none;stroke:#fff;stroke-miterlimit:10;stroke-width:11.16px;}</style></defs><path class="cls-1" d="M421.73,270l.85-125.85-159-1-.85,125.84ZM295.2,174.72l95.38.63-.43,62.92-95.38-.63Z" transform="translate(-18.12 -16.21)"/><path class="cls-1" d="M586,145.18C551,145,522.26,173,522,207.68S550.12,270.8,585.19,271s63.78-27.8,64-62.5S621.11,145.42,586,145.18Zm-.64,94.39a31.47,31.47,0,1,1,32-31.25A31.66,31.66,0,0,1,585.4,239.57Z" transform="translate(-18.12 -16.21)"/><path class="cls-1" d="M780.51,159.81l-.64,94.38,159,1.05.64-94.38Zm126.75,63.76-95.38-.63.21-31.46,95.38.63Z" transform="translate(-18.12 -16.21)"/><path class="cls-1" d="M778.46,463.82l159,1.05.64-94.38-159-1.06Zm32.21-62.71,95.38.63-.21,31.46-95.38-.63Z" transform="translate(-18.12 -16.21)"/><path class="cls-1" d="M528.23,619.13l-31.79-.21,1.91-283.15L403,335.14l-1.91,283.15-31.79-.21,1.49-220.23-95.38-.63-1.71,251.69,349.73,2.31,1.06-157.3-95.38-.63Zm-190.76-1.26-31.79-.21L307,428.89l31.79.21Zm97.08-251.06,31.8.21-1.7,251.69-31.8-.21ZM560.66,525l31.8.21-.64,94.38L560,619.34Z" transform="translate(-18.12 -16.21)"/><path class="cls-1" d="M778.17,656.53l159,1.05.64-94.38-159-1.05Zm32.22-62.71,95.38.63-.21,31.46-95.38-.63Z" transform="translate(-18.12 -16.21)"/><rect class="cls-1" x="5.58" y="5.58" width="1077.72" height="778.56" rx="48.92"/></svg>