<svg id="Capa_1" data-name="Capa 1" xmlns="http://www.w3.org/2000/svg" viewBox="0 0 114.15 116.07"><defs><style>.cls-1{fill:none;stroke:#fff;stroke-miterlimit:10;stroke-width:0.75px;}</style></defs><path class="cls-1" d="M103.1,37.36c.22-.71.13-1.8-1.55-3L57.1,3.62a6.91,6.91,0,0,0-7.42,0l-17,11.77V10.62a2.47,2.47,0,0,0-2.47-2.46H20.54a2.47,2.47,0,0,0-2.47,2.46V24.24a1.68,1.68,0,0,1-.5,1.62L5.24,34.4c-1.68,1.16-1.77,2.25-1.55,3s.92,1.56,3,1.56h5a2.2,2.2,0,0,1,2.19,2.19V89.89a4.93,4.93,0,0,0,4.93,4.93H88a4.93,4.93,0,0,0,4.93-4.93V41.11a2.19,2.19,0,0,1,2.19-2.19h5c2.05,0,2.74-.85,3-1.56ZM34.67,68a1.1,1.1,0,0,1-1.1,1.1H22.78A1.1,1.1,0,0,1,21.69,68V58.48a1.09,1.09,0,0,1,1.09-1.09H33.57a1.09,1.09,0,0,1,1.1,1.09V68Zm0-14.77a1.1,1.1,0,0,1-1.1,1.1H22.78a1.09,1.09,0,0,1-1.09-1.1V44.43a1.09,1.09,0,0,1,1.09-1.09H33.57a1.09,1.09,0,0,1,1.1,1.09v8.75ZM50.76,68a1.1,1.1,0,0,1-1.09,1.1H38.88a1.1,1.1,0,0,1-1.1-1.1V58.48a1.09,1.09,0,0,1,1.1-1.09H49.67a1.09,1.09,0,0,1,1.09,1.09Zm0-14.77a1.09,1.09,0,0,1-1.09,1.1H38.88a1.1,1.1,0,0,1-1.1-1.1V44.43a1.09,1.09,0,0,1,1.1-1.09H49.67a1.09,1.09,0,0,1,1.09,1.09ZM79.18,90.56a1.1,1.1,0,0,1-1.1,1.1H62a1.09,1.09,0,0,1-1.09-1.1V64.88A1.1,1.1,0,0,1,62,63.78H78.08a1.1,1.1,0,0,1,1.1,1.1Zm0,0" transform="translate(-3.23 -2.16)"/><path class="cls-1" d="M105,80.33A1.91,1.91,0,0,0,104.4,83l2.14,3.29a2.65,2.65,0,0,0,2.19,1.25h0a2.66,2.66,0,0,0,2.2-1.28L113,82.91a1.92,1.92,0,0,0-2.45-2.75l-.25-18.51a1.92,1.92,0,0,0,2.37-2.81l-2.14-3.29a2.64,2.64,0,0,0-2.2-1.24h0a2.61,2.61,0,0,0-2.2,1.28l-2.08,3.32a1.92,1.92,0,0,0,.6,2.65,2,2,0,0,0,1,.29,2,2,0,0,0,.82-.19l.24,18.51a1.91,1.91,0,0,0-1.79.16Zm0,0" transform="translate(-3.23 -2.16)"/><path class="cls-1" d="M102,50.22h0l12.61-.1a1.92,1.92,0,0,0,0-3.84h0L102,46.39a1.92,1.92,0,0,0,0,3.83Zm0,0" transform="translate(-3.23 -2.16)"/><path class="cls-1" d="M115.08,91.6h0l-12.61.1a1.92,1.92,0,0,0,0,3.84h0l12.61-.1a1.92,1.92,0,0,0,0-3.84Zm0,0" transform="translate(-3.23 -2.16)"/><path class="cls-1" d="M85.39,107l-3.33-2.09a1.92,1.92,0,0,0-2.64.61,1.89,1.89,0,0,0-.12,1.81l-50.79.3a1.92,1.92,0,0,0-2.8-2.39l-3.29,2.14a2.55,2.55,0,0,0,0,4.41l3.32,2.09a1.89,1.89,0,0,0,1,.3,1.93,1.93,0,0,0,1.75-2.71l50.79-.31a1.9,1.9,0,0,0,.14,1.83,1.93,1.93,0,0,0,1.61.87,1.89,1.89,0,0,0,1-.31l3.29-2.14a2.63,2.63,0,0,0,1.25-2.22A2.65,2.65,0,0,0,85.39,107Zm0,0" transform="translate(-3.23 -2.16)"/><path class="cls-1" d="M92.67,101h0a1.93,1.93,0,0,0-1.91,1.93l.1,12.61a1.92,1.92,0,0,0,1.92,1.9h0a1.92,1.92,0,0,0,1.9-1.93l-.1-12.61a1.92,1.92,0,0,0-1.92-1.9Zm0,0" transform="translate(-3.23 -2.16)"/><path class="cls-1" d="M15.07,101.41h0a1.93,1.93,0,0,0-1.9,1.94l.1,12.6a1.92,1.92,0,0,0,1.92,1.91h0a1.93,1.93,0,0,0,1.9-1.94l-.1-12.6a1.92,1.92,0,0,0-1.92-1.91Zm0,0" transform="translate(-3.23 -2.16)"/></svg>