<svg id="Capa_1" data-name="Capa 1" xmlns="http://www.w3.org/2000/svg" viewBox="0 0 866.08 817.22"><defs><style>.cls-1,.cls-3{fill:#d6e800;}.cls-1,.cls-2,.cls-3{stroke:#fff;stroke-miterlimit:10;}.cls-1{stroke-width:0.26px;}.cls-2{fill:none;stroke-width:0.25px;}.cls-3{stroke-width:0.25px;}</style></defs><path class="cls-1" d="M430.71,527.92l-11.07-61.15A63.76,63.76,0,0,0,385.18,421l-69.31-34.17c-4-1.94-7.86-4.17-11.75-6.31L326,445l-30.58-2.33L228,525.59l-67.37-82.9L130.07,445l22.33-64.46-13.89,7.09L70.85,421a63.76,63.76,0,0,0-34.46,45.73L25.32,527.92a7.35,7.35,0,0,0,7.19,8.64H423.33a7.38,7.38,0,0,0,7.38-8.64Zm0,0" transform="translate(-25.08 -62.03)"/><path class="cls-1" d="M282.86,363.67v-19.9s62.71,1.94,92.51-28.44c0,0-43.29-12.23-35.52-91.16s-9.71-148-73.1-142.21c0,0-27.48-33.1-82.13-12.23C165.89,76.91,115.5,94.87,118,204.17S79.2,314.07,79.2,314.07s21.36,31.06,93.77,30.38v20.39L228,525.59,283,365.13Z" transform="translate(-25.08 -62.03)"/><rect class="cls-2" x="0.13" y="0.13" width="406.26" height="475.57"/><path class="cls-3" d="M591,832,644,687.24l-16.34-35.16h32.74L644,687.24,697,832l-33.29,46c67.47-11.27,175.1-71.15,227.31-71.15l-18.3-78.89a74.37,74.37,0,0,0-19.81-14.46c-38.29-19.63-77.91-35.87-118-51.32-3-1.14-6.61-3.38-7.86-6a212.22,212.22,0,0,1-7.84-22.51c-1.53-4.91-2.79-9.46-8.13-11.76-1.42-.64-2.68-3.5-2.68-5.28.28-17.57-3.74-36,9.28-51.41a7.73,7.73,0,0,0,.8-1.69c7.06-15.44,8.32-33,18.12-47.38a2.07,2.07,0,0,0,.36-1.26c1.17-11,2.31-21.86,3.29-32.76.1-1.42-1.14-3.84-2.21-4.18-5.44-2-5.19-6.26-5.19-10.63V421.46c0-12.5-3.65-23.47-13-31.94-10.72-9.65-21.68-18.92-32.67-28.22-5.35-4.46-5.81-7.93-.8-12.84,2.15-2.24,5-3.75,7.49-5.62-.52-.8-1.07-1.69-1.6-2.51-3.4,0-6.69-.44-9.91.09-12.14,2-24.36,3.65-36.33,6.44-22.76,5.44-44.87,12.48-63.45,27.83-12.59,10.35-22.75,22.5-24,39.73-.62,9-.52,18-.62,27-.09,14.73.1,11.15-.18,25.79-.09,2.42-1.42,6.33-3,6.88-6,1.87-6.14,5.71-5.34,10.71.61,3.39.18,6.95.89,10.26,2,9.19,4.29,18.37,6.87,27.4,2,6.69,5.81,13,6.88,19.9,2.13,13.66,7.22,25.61,16.41,35.87a10.53,10.53,0,0,1,2.51,6.87c-.73,10.54-1.78,21.07-3.22,31.51-.37,2.06-2.4,5.09-4.21,5.44-6.94,1.44-8,6.87-9.71,12.31-2.24,7.15-4.54,14.37-7.33,21.34a11.08,11.08,0,0,1-5.16,5.35c-12.41,5.37-25.09,10.37-37.68,15.62-13.3,5.63-26.75,11-39.71,17.14-13.48,6.42-26.5,13.66-39.61,20.7a97.83,97.83,0,0,0-21,14.37L397,806.82c89.06,0,135.58,64.36,228.2,72.29ZM730.8,755.32h76.94v13.76H730.8Zm0,0" transform="translate(-25.08 -62.03)"/></svg>