<svg id="Capa_1" data-name="Capa 1" xmlns="http://www.w3.org/2000/svg" viewBox="0 0 118.61 110.12"><defs><style>.cls-1{fill:none;stroke:#fff;stroke-miterlimit:10;stroke-width:0.75px;}</style></defs><path class="cls-1" d="M109.16,100v13.35h9.44V90.58H10.18V51.91A4.81,4.81,0,0,0,8.8,48.57a4.41,4.41,0,0,0-3.34-1.49,4.41,4.41,0,0,0-3.34,1.49A4.81,4.81,0,0,0,.74,51.91v61.46h9.44V100Zm0,0" transform="translate(-0.37 -3.63)"/><path class="cls-1" d="M27.22,76.66a8.68,8.68,0,0,0,6.21-2.54,8.35,8.35,0,0,0,0-12.2,8.71,8.71,0,0,0-6.21-2.53,8.64,8.64,0,0,0,0,17.27Zm0,0" transform="translate(-0.37 -3.63)"/><path class="cls-1" d="M33.31,74.24H21.24a8.28,8.28,0,0,0,6,2.42,8.69,8.69,0,0,0,6.09-2.42Zm0,0" transform="translate(-0.37 -3.63)"/><path class="cls-1" d="M116.41,69.52a9.47,9.47,0,0,0-5-2.19L43.1,60.66h-.46A4.32,4.32,0,0,0,38.26,65v11.8c-.5-1-8.12,1.9-11,1.9a10.37,10.37,0,0,1-7.57-3.14,11.6,11.6,0,0,1-1-1.13,4.61,4.61,0,0,0-3.19,4.38v2.07a4.6,4.6,0,0,0,4.61,4.61h98.29V74a5.69,5.69,0,0,0-2-4.49Z" transform="translate(-0.37 -3.63)"/><path class="cls-1" d="M116.41,69.52" transform="translate(-0.37 -3.63)"/><path class="cls-1" d="M63.2,4A16.92,16.92,0,1,0,80.11,20.92,16.91,16.91,0,0,0,63.2,4Zm0,28.69A11.78,11.78,0,1,1,75,20.92,11.79,11.79,0,0,1,63.2,32.69Zm0,0" transform="translate(-0.37 -3.63)"/><path class="cls-1" d="M64.66,20V13.45a1.46,1.46,0,0,0-2.92,0v9.44h9.45a1.46,1.46,0,0,0,0-2.91Zm0,0" transform="translate(-0.37 -3.63)"/></svg>