<svg id="Capa_1" data-name="Capa 1" xmlns="http://www.w3.org/2000/svg" viewBox="0 0 957.07 981.18"><defs><style>.cls-1{fill:none;stroke:#fff;stroke-miterlimit:10;stroke-width:18.6px;}</style></defs><path class="cls-1" d="M359.85,626.33a133,133,0,1,0-133-133A133,133,0,0,0,359.85,626.33Z" transform="translate(-91.85 -12.82)"/><path class="cls-1" d="M647.9,493.31a133,133,0,1,0,133-133A133,133,0,0,0,647.9,493.31Z" transform="translate(-91.85 -12.82)"/><circle class="cls-1" cx="570.38" cy="155.14" r="133.02" transform="translate(-34.49 435.94) rotate(-45)"/><path class="cls-1" d="M658,387.21a163,163,0,0,1,74.6-49.09A113.1,113.1,0,0,0,658,306.34Z" transform="translate(-91.85 -12.82)"/><path class="cls-1" d="M482.82,387.21V306.34a113.12,113.12,0,0,0-74.6,31.78A162.9,162.9,0,0,1,482.82,387.21Z" transform="translate(-91.85 -12.82)"/><path class="cls-1" d="M457.43,623.21c35.61,11.16,70.53,32.5,90.82,57.5,1,1.27,2.09,2.66,3.19,4.22l18.94,26.77,19-26.77c1.11-1.56,2.15-2.95,3.2-4.24,20.28-25,55.21-46.33,90.81-57.48A162.36,162.36,0,0,1,621.84,460l-18.08,28.74-24.4-114.2L609,344.86l-38.63-38.62-38.62,38.62,29.65,29.65L537,488.71,518.94,460a162.44,162.44,0,0,1-61.51,163.24Z" transform="translate(-91.85 -12.82)"/><path class="cls-1" d="M943.07,955.56c28.17-1,70.2-3.52,88-35,13.47-23.85,2.12-52.14-10.87-72.47-6.41-10.2-51.18-114-73.76-148.8-21.4-33-78.15-54.85-117.49-54.9h-96c-39.34.05-93,24.76-117.5,54.9-.68.84-1.34,1.74-2,2.66H726.58A48.52,48.52,0,0,1,775,750.43V936.62a48,48,0,0,1-3.86,18.94h-44.6a18.94,18.94,0,0,0,18.94-18.94V750.43a18.94,18.94,0,0,0-18.94-18.94H414.19a18.94,18.94,0,0,0-18.94,18.94V936.62a18.94,18.94,0,0,0,18.94,18.94h-44.6a48.2,48.2,0,0,1-3.86-18.94V750.43A48.52,48.52,0,0,1,414.19,702H527.35c-.66-.92-1.33-1.82-2-2.66-24.46-30.14-78.15-54.85-117.49-54.9h-96c-39.35.05-96.1,21.89-117.5,54.9-22.58,34.84-67.35,138.6-73.75,148.8-13,20.33-24.35,48.62-10.87,72.47,17.77,31.46,59.79,34,88,35H101.15V984.7h938.47V955.56Z" transform="translate(-91.85 -12.82)"/><path class="cls-1" d="M566.1,825.67a33,33,0,1,0-33-33A33,33,0,0,0,566.1,825.67Z" transform="translate(-91.85 -12.82)"/><path class="cls-1" d="M616.76,912.72H515.44c-5.33-.19-15.3-.55-22.13-6.33l-13.53,12H652.41l-13.52-12C632.06,912.17,622.09,912.53,616.76,912.72Z" transform="translate(-91.85 -12.82)"/><path class="cls-1" d="M566.1,882.56a19.68,19.68,0,0,1,8.27-7.14l-6-28.27,7.38-7.37-9.61-9.61-9.61,9.61,7.38,7.37-6,28.27A19.68,19.68,0,0,1,566.1,882.56Z" transform="translate(-91.85 -12.82)"/><path class="cls-1" d="M515.63,907.27h34.1a14.08,14.08,0,0,0,0-28.16H521.06v-5.45h28.67a19.52,19.52,0,0,1,7.94,1.69l-13.35-21.23v-24h-7.15c-4.31.39-35.66,42.52-40.65,50.46-3.22,5-6,12.06-2.69,18C498.23,906.4,508.65,907,515.63,907.27Z" transform="translate(-91.85 -12.82)"/><path class="cls-1" d="M595,830.17h-7.14v24l-13.36,21.23a19.53,19.53,0,0,1,8-1.69h28.66v5.45H582.47a14.08,14.08,0,0,0,0,28.16h34.09c7-.25,17.4-.87,21.81-8.67,3.34-5.91.52-12.93-2.7-18C630.68,872.69,599.34,830.56,595,830.17Z" transform="translate(-91.85 -12.82)"/></svg>