<svg id="Capa_1" data-name="Capa 1" xmlns="http://www.w3.org/2000/svg" viewBox="0 0 856.5 861.43"><defs><style>.cls-1{fill:#fcee21;stroke:#1b1464;stroke-miterlimit:10;stroke-width:0.5px;}</style></defs><path class="cls-1" d="M65.88,398.14h98.27a365.9,365.9,0,0,1,1.21-95.65H65.88C3.7,301.62,3.82,399.07,65.88,398.14Zm0,0" transform="translate(-17.75 -19.25)"/><path class="cls-1" d="M65.88,518.72H199.13A380.46,380.46,0,0,1,168,423.07H65.88C3.7,422.18,3.81,519.63,65.88,518.72Zm0,0" transform="translate(-17.75 -19.25)"/><path class="cls-1" d="M65.88,277.59h103.4a375.88,375.88,0,0,1,33.66-95.65H65.88C3.71,181.05,3.81,278.5,65.88,277.59Zm0,0" transform="translate(-17.75 -19.25)"/><path class="cls-1" d="M65.88,157H216.93a385.44,385.44,0,0,1,81.54-95.65H65.88C3.71,60.49,3.81,157.91,65.88,157Zm0,0" transform="translate(-17.75 -19.25)"/><path class="cls-1" d="M65.88,639.27H289.63A387.43,387.43,0,0,1,212,543.62H65.88C3.7,542.75,3.81,640.2,65.88,639.27Zm0,0" transform="translate(-17.75 -19.25)"/><path class="cls-1" d="M65.88,759.85h354a47.8,47.8,0,0,0,44.72-31.37A381.07,381.07,0,0,1,320.55,664.2H65.88C3.72,663.24,3.79,760.77,65.88,759.85Zm0,0" transform="translate(-17.75 -19.25)"/><path class="cls-1" d="M419.92,784.78h-354a47.83,47.83,0,1,0,0,95.65h354c61.83.91,62.09-96.63,0-95.65Zm0,0" transform="translate(-17.75 -19.25)"/><path class="cls-1" d="M544.11,19.5c-440,7.88-440,661.74,0,669.52,439.93-7.82,439.76-661.73,0-669.52Zm0,573.88c-314.36-5.66-314.21-472.58,0-478.23,314.11,5.66,314.16,472.65,0,478.23Zm0,0" transform="translate(-17.75 -19.25)"/><path class="cls-1" d="M558,322V239.31c48.21.89,47.77,47.46,76.08,47.46,14.75,0,27.43-10,27.43-27,0-42.64-69.62-63.83-103.51-64.83-.77-11.23,4.62-37.49-13.13-37.92-17.49.43-12.13,26.85-12.9,37.92-128,.84-145.26,165.41,0,179.59v91c-72.36-3.05-34.41-63.05-83.16-63.05-69.24,19.06,1.07,111.87,83.16,107.43,1.22,11.4-5.59,41.32,12.9,41.78,18.73-.39,11.95-30.3,13.13-41.78,149.75-3,137.4-181.2,0-187.88Zm-26-4.7c-65.11-7.53-64.56-74.67,0-78Zm26,148.2V379.34c69,6.28,72.28,82.66,0,86.13Zm0,0" transform="translate(-17.75 -19.25)"/></svg>