<svg id="Capa_1" data-name="Capa 1" xmlns="http://www.w3.org/2000/svg" viewBox="0 0 982.15 982.15"><defs><style>.cls-1,.cls-2{stroke:#fff;stroke-miterlimit:10;stroke-width:9.35px;}.cls-2{fill:#fff;}</style></defs><circle class="cls-1" cx="491.08" cy="491.08" r="486.4"/><rect class="cls-2" x="231.27" y="383.59" width="118.46" height="356.39"/><path class="cls-2" d="M361.58,343.92h-.77c-39.75,0-65.46-27.36-65.46-61.56,0-35,26.5-61.58,67-61.58s65.46,26.6,66.23,61.58C428.6,316.56,402.89,343.92,361.58,343.92Z" transform="translate(-71.08 -9)"/><path class="cls-2" d="M848,749H729.51V558.32c0-47.92-17.15-80.6-60-80.6-32.73,0-52.22,22-60.78,43.32-3.13,7.62-3.9,18.26-3.9,28.91V749H486.37s1.55-323,0-356.39H604.82v50.46c15.74-24.29,43.91-58.83,106.76-58.83,77.94,0,136.38,50.94,136.38,160.4Z" transform="translate(-71.08 -9)"/></svg>