<svg id="Capa_1" data-name="Capa 1" xmlns="http://www.w3.org/2000/svg" viewBox="0 0 864.5 869.48"><defs><style>.cls-1{fill:#ff0040;stroke:#1b1464;stroke-miterlimit:10;stroke-width:0.5px;}</style></defs><path class="cls-1" d="M66.33,392.65h99.19a368.7,368.7,0,0,1,1.22-96.53H66.33C3.56,295.23,3.68,393.59,66.33,392.65Zm0,0" transform="translate(-17.75 -10.23)"/><path class="cls-1" d="M66.33,514.36h134.5a383.79,383.79,0,0,1-31.47-96.54h-103C3.57,416.92,3.68,515.28,66.33,514.36Zm0,0" transform="translate(-17.75 -10.23)"/><path class="cls-1" d="M66.33,271H170.69a379.77,379.77,0,0,1,34-96.54H66.33C3.57,173.53,3.68,271.89,66.33,271Zm0,0" transform="translate(-17.75 -10.23)"/><path class="cls-1" d="M66.33,149.27H218.79a389.06,389.06,0,0,1,82.3-96.54H66.33C3.58,51.85,3.67,150.18,66.33,149.27Zm0,0" transform="translate(-17.75 -10.23)"/><path class="cls-1" d="M66.33,636H292.17a390.63,390.63,0,0,1-78.32-96.54H66.33C3.57,538.61,3.68,637,66.33,636Zm0,0" transform="translate(-17.75 -10.23)"/><path class="cls-1" d="M66.33,757.75H423.68a48.22,48.22,0,0,0,45.13-31.67A384.68,384.68,0,0,1,323.38,661.2h-257C3.59,660.24,3.66,758.67,66.33,757.75Zm0,0" transform="translate(-17.75 -10.23)"/><path class="cls-1" d="M423.68,782.91H66.33a48.27,48.27,0,1,0,0,96.54H423.68c62.4.92,62.66-97.53,0-96.54Zm0,0" transform="translate(-17.75 -10.23)"/><path class="cls-1" d="M549,10.48c-444.09,8-444.13,667.92,0,675.78,444-7.9,443.86-667.92,0-675.78Zm0,579.24c-317.3-5.71-317.15-477,0-482.7,317.05,5.72,317.1,477.07,0,482.7Zm0,0" transform="translate(-17.75 -10.23)"/><path class="cls-1" d="M563,315.77V232.34c48.66.9,48.21,47.9,76.79,47.9,14.89,0,27.68-10.05,27.68-27.25,0-43.05-70.27-64.43-104.47-65.45-.78-11.33,4.66-37.84-13.25-38.27-17.66.44-12.25,27.1-13,38.27-129.19.85-146.63,167,0,181.28v91.79C463.73,457.53,502,397,452.82,397c-69.88,19.23,1.08,112.91,83.95,108.43,1.22,11.51-5.65,41.71,13,42.17,18.9-.39,12.06-30.59,13.25-42.17,151.14-3.05,138.68-182.89,0-189.64ZM536.77,311c-65.73-7.6-65.17-75.36,0-78.69ZM563,460.61V373.67c69.59,6.35,73,83.45,0,86.94Zm0,0" transform="translate(-17.75 -10.23)"/></svg>