<svg id="Capa_1" data-name="Capa 1" xmlns="http://www.w3.org/2000/svg" viewBox="0 0 1059.21 980.58">
    <defs>
        <style>.cls-1{font-size:190.89px;fill:#ccc;font-family:Montserrat-Light, Montserrat;font-weight:300;}.cls-2{letter-spacing:0em;}.cls-3{letter-spacing:-0.01em;}.cls-4{letter-spacing:0em;}.cls-5{fill:none;stroke:#fff;stroke-miterlimit:10;stroke-width:8.22px;}</style>
    </defs>
    <path class="cls-5" d="M481.75,200l.63-92.76L365.2,106.5l-.63,92.76Zm-93.27-70.19,70.3.46-.31,46.38-70.31-.46Z" transform="translate(-32.97 -13)"/>
    <path class="cls-5" d="M602.87,108.07c-25.85-.17-47,20.5-47.19,46.07s20.71,46.53,46.56,46.7,47-20.49,47.19-46.07S628.72,108.24,602.87,108.07Zm-.47,69.58a23.2,23.2,0,1,1,23.59-23A23.34,23.34,0,0,1,602.4,177.65Z" transform="translate(-32.97 -13)"/>
    <path class="cls-5" d="M746.22,118.85l-.47,69.58,117.18.77.47-69.57Zm93.43,47-70.31-.47.16-23.19,70.31.47Z" transform="translate(-32.97 -13)"/>
    <path class="cls-5" d="M744.71,343l117.18.78.47-69.58-117.18-.77Zm23.75-46.23,70.3.47-.15,23.19-70.31-.46Z" transform="translate(-32.97 -13)"/>
    <path class="cls-5" d="M560.26,457.44l-23.44-.16,1.41-208.72-70.31-.46-1.41,208.72-23.43-.16,1.09-162.33-70.3-.47-1.26,185.53,257.8,1.71.78-116-70.31-.47Zm-140.62-.93-23.44-.16.94-139.14,23.44.15ZM491.2,271.44l23.44.16-1.26,185.53L490,457Zm93,116.58,23.44.16-.47,69.57-23.44-.16Z" transform="translate(-32.97 -13)"/>
    <path class="cls-5" d="M744.5,485l117.18.78.47-69.58L745,415.44Zm23.75-46.23,70.31.47-.16,23.19L768.09,462Z" transform="translate(-32.97 -13)"/>
    <rect class="cls-5" x="155.37" y="4.11" width="794.43" height="573.91" />
</svg>