<svg id="Capa_1" data-name="Capa 1" xmlns="http://www.w3.org/2000/svg" viewBox="0 0 108.8 115.5"><defs><style>.cls-1{fill:none;stroke:#fff;stroke-miterlimit:10;stroke-width:0.75px;}</style></defs><path class="cls-1" d="M111.85,20.83A19.57,19.57,0,0,0,92.3,1.28H84.14A19.4,19.4,0,0,0,72.21,5.34,4.14,4.14,0,0,0,70.9,7.1a13.65,13.65,0,0,0-14.36,7.47,4.1,4.1,0,0,0,1.88,5.49l17.11,8.39a4,4,0,0,0,1.81.42A4.11,4.11,0,0,0,81,26.57,13.67,13.67,0,0,0,78.5,11a11.15,11.15,0,0,1,5.64-1.5H92.3a11.35,11.35,0,0,1,11.34,11.33V64h8.21V20.83Z" transform="translate(-5.57 -0.91)"/><path class="cls-1" d="M6,69.43v9.92a26.17,26.17,0,0,0,21.28,25.71l-3.95,4a4.11,4.11,0,0,0,5.81,5.81l8.79-8.8a4.15,4.15,0,0,0,.43-.51H81.63a3.5,3.5,0,0,0,.44.51l8.79,8.8A4.11,4.11,0,0,0,96.67,109l-4-4A26.18,26.18,0,0,0,114,79.35V69.43Z" transform="translate(-5.57 -0.91)"/><path class="cls-1" d="M10.16,29.18a7.93,7.93,0,0,0,10.27,4.53l4-1.54A7.93,7.93,0,0,0,28.94,21.9l-1.54-4a7.94,7.94,0,0,0-10.27-4.53l-4,1.55A7.92,7.92,0,0,0,8.62,25.2Z" transform="translate(-5.57 -0.91)"/><path class="cls-1" d="M37.66,44.38a10.07,10.07,0,0,0-18.78,7.28L23.65,64h21.6Z" transform="translate(-5.57 -0.91)"/><path class="cls-1" d="M76,56.07A8.22,8.22,0,0,0,65.8,54.25L48.58,64H82.77Z" transform="translate(-5.57 -0.91)"/></svg>