<svg xmlns="http://www.w3.org/2000/svg" viewBox="0 0 1096.89 772.78"><defs><style>.cls-1{isolation:isolate;}.cls-2,.cls-3{fill:#fff;stroke:#fff;stroke-miterlimit:10;stroke-width:12.46px;}.cls-2{mix-blend-mode:soft-light;}</style></defs><g class="cls-1"><g id="Capa_1" data-name="Capa 1"><path class="cls-2" d="M379.7,140.37C572.64,130.6,791.92,222.85,919.07,359l83.44-5.21C855.93,184.94,578.19,59.12,335.75,70.59,87.72,82.32-29.23,232.67,41,413.8l90.57-5.65C84,262.19,183.22,150.32,379.7,140.37Z" transform="translate(-14.59 -63.63)"/><path class="cls-2" d="M774.36,767.1C593.11,781.84,376.39,701.46,240,570l-88.68,6.23C312.62,739.42,587.76,847,812.72,828c220.25-18.59,330.44-153.63,280.76-318l-81.81,5.74C1046.16,650,952.55,752.61,774.36,767.1Z" transform="translate(-14.59 -63.63)"/><path class="cls-2" d="M854.82,362.91C746.19,256.27,568.3,184,412.39,192.3,254.19,200.71,171.81,289,200.14,403.76c6.31,26.41,18.93,54.5,37.86,83,18.82,28.29,42.7,55.17,69.9,79.47,114.36,103,290,167,437.78,155.37,145.76-11.53,224-93.69,203.62-200.42-4.61-25.09-15-52-31.42-79.53C901.39,413.93,879.87,387.32,854.82,362.91Z" transform="translate(-14.59 -63.63)"/><path class="cls-3" d="M421.23,345c-23.56-36.91-4.28-69,42.85-71.71C511,270.63,567.22,298,590,334.6l29.3,47.3,39.24-2.46-28.84-46.71c-33.6-54.45-117.13-96-187.17-92.1C372,244.54,344,292.81,379.33,347.83L409.65,395l42.1-2.63Z" transform="translate(-14.59 -63.63)"/><path class="cls-3" d="M744.51,434c-15.21-24.85-53.31-43.46-85.12-41.45L427.66,407.15c-32.61,2.06-45.83,24.26-29.51,49.46l93.9,145c15.78,24.37,54.23,42.11,85.87,39.75l224.89-16.79c30.88-2.31,44-23.58,29.26-47.61Zm-141,139.53-14-66.56c-13.07-4.55-25-12.8-31.28-22.73C548,468.12,556.57,454,577.27,452.62s45.52,10.57,55.55,26.59c6.19,9.9,5.22,19-1.25,24.82l67.17,62.64Z" transform="translate(-14.59 -63.63)"/></g></g></svg>