<svg id="Capa_1" data-name="Capa 1" xmlns="http://www.w3.org/2000/svg" viewBox="0 0 992.53 986.15"><defs><style>.cls-1{fill:#fff;}.cls-1,.cls-2{stroke:#fff;stroke-miterlimit:10;stroke-width:9.22px;}</style></defs><ellipse class="cls-1" cx="495.97" cy="495.93" rx="484.93" ry="478.92"/><path class="cls-2" d="M656.26,500.08c0,51.63-42.13,93.49-94.11,93.49s-94.1-41.86-94.1-93.49,42.13-93.5,94.1-93.5S656.26,448.44,656.26,500.08Z" transform="translate(-65.89 -7)"/><path class="cls-2" d="M782.23,334.66a93.25,93.25,0,0,0-53.58-53.24c-9.94-3.83-24.89-8.4-52.41-9.65-29.78-1.35-38.71-1.64-114.09-1.64s-84.31.29-114.08,1.63c-27.52,1.26-42.48,5.83-52.42,9.66a93.25,93.25,0,0,0-53.58,53.24c-3.87,9.88-8.46,24.73-9.72,52.08-1.36,29.58-1.65,38.45-1.65,113.34s.29,83.77,1.65,113.35c1.26,27.34,5.85,42.19,9.72,52.07a93.17,93.17,0,0,0,53.58,53.24c9.94,3.84,24.9,8.41,52.42,9.66,29.77,1.35,38.69,1.63,114.08,1.63s84.32-.28,114.08-1.63c27.52-1.25,42.48-5.82,52.42-9.66a93.2,93.2,0,0,0,53.58-53.24c3.87-9.88,8.46-24.73,9.73-52.07,1.35-29.58,1.64-38.45,1.64-113.35s-.29-83.76-1.64-113.34C790.7,359.39,786.1,344.54,782.23,334.66ZM562.15,644.11c-80.07,0-145-64.48-145-144s64.9-144,145-144,145,64.48,145,144S642.22,644.11,562.15,644.11ZM712.85,384a33.66,33.66,0,1,1,33.88-33.66A33.77,33.77,0,0,1,712.85,384Z" transform="translate(-65.89 -7)"/><path class="cls-2" d="M562.15,11.61C290.66,11.61,70.5,230.35,70.5,500.08S290.66,988.54,562.15,988.54,1053.8,769.81,1053.8,500.08,833.64,11.61,562.15,11.61ZM842.77,615.72c-1.37,29.85-6.15,50.24-13.12,68.08a143.9,143.9,0,0,1-82.57,82c-18,6.94-38.48,11.68-68.53,13s-39.72,1.69-116.39,1.69-86.29-.33-116.4-1.69-50.57-6.1-68.52-13a143.86,143.86,0,0,1-82.57-82c-7-17.83-11.76-38.23-13.12-68.08s-1.71-39.47-1.71-115.64.32-85.73,1.7-115.64,6.14-50.25,13.12-68.09a143.93,143.93,0,0,1,82.57-82c18-6.93,38.48-11.67,68.53-13s39.72-1.69,116.39-1.69,86.29.33,116.4,1.7,50.57,6.1,68.53,13a143.91,143.91,0,0,1,82.57,82c7,17.84,11.75,38.23,13.12,68.09s1.7,39.46,1.7,115.64S844.15,585.81,842.77,615.72Z" transform="translate(-65.89 -7)"/></svg>